<svg xmlns="http://www.w3.org/2000/svg" width="22" height="22.727" viewBox="0 0 22 22.727"><defs><style>.a{fill:#1a181a;}</style></defs><g transform="translate(-260 -1638)"><g transform="translate(260 1638)"><g transform="translate(0)"><path class="a" d="M26.967,14.48a10.931,10.931,0,0,0-5.112-2.9,6.1,6.1,0,1,0-5.332,0A11.012,11.012,0,0,0,8.189,22.258a.469.469,0,0,0,.469.469H29.72a.469.469,0,0,0,.469-.469A10.928,10.928,0,0,0,26.967,14.48ZM14.029,6.1a5.16,5.16,0,1,1,5.16,5.16A5.166,5.166,0,0,1,14.029,6.1ZM9.138,21.789a10.062,10.062,0,0,1,20.1,0Z" transform="translate(-8.189)"/></g><g transform="translate(2.07 14.313)"><g transform="translate(0)"><path class="a" d="M59.7,322.685a.469.469,0,0,0-.643-.162,9.226,9.226,0,0,0-4.22,5.728.469.469,0,1,0,.912.219,8.283,8.283,0,0,1,3.789-5.142A.469.469,0,0,0,59.7,322.685Z" transform="translate(-54.821 -322.457)"/></g></g><g transform="translate(8.514 13.087)"><g transform="translate(0)"><path class="a" d="M202.475,294.835a9.215,9.215,0,0,0-2.125.248.469.469,0,1,0,.217.913,8.273,8.273,0,0,1,1.909-.222.469.469,0,1,0,0-.938Z" transform="translate(-199.989 -294.835)"/></g></g></g></g></svg>