<svg xmlns="http://www.w3.org/2000/svg" width="79.091" height="68.506" viewBox="0 0 79.091 68.506"><defs><style>.a{fill:#fff;}</style></defs><g transform="translate(-97 -694)"><g transform="translate(97 694)"><g transform="translate(0 0)"><g transform="translate(0 0)"><path class="a" d="M70.038,28.887l.333.832a1.081,1.081,0,0,0,1,.666.75.75,0,0,0,.416-.083,1.19,1.19,0,0,0,.583-1.415l-.333-.832a1.533,1.533,0,0,1,.25-1.664,3.761,3.761,0,0,0,.25-4.327l-.416-.666A1.028,1.028,0,0,0,70.37,22.48l.416.666a1.775,1.775,0,0,1-.083,1.914A3.444,3.444,0,0,0,70.038,28.887Z" transform="translate(-13.748 -10.477)"/><path class="a" d="M75.938,28.887l.333.832a1.081,1.081,0,0,0,1,.666.75.75,0,0,0,.416-.083,1.19,1.19,0,0,0,.582-1.415l-.333-.832a1.533,1.533,0,0,1,.25-1.664,3.761,3.761,0,0,0,.25-4.327l-.416-.666A1.028,1.028,0,1,0,76.27,22.48l.416.666a1.775,1.775,0,0,1-.083,1.914A3.444,3.444,0,0,0,75.938,28.887Z" transform="translate(-14.738 -10.477)"/><path class="a" d="M81.833,28.887l.333.832a1.081,1.081,0,0,0,1,.666.75.75,0,0,0,.416-.083,1.19,1.19,0,0,0,.583-1.415l-.333-.832a1.533,1.533,0,0,1,.25-1.664,3.761,3.761,0,0,0,.25-4.327l-.416-.666a1.028,1.028,0,0,0-1.748,1.082l.416.666a1.775,1.775,0,0,1-.083,1.914A3.306,3.306,0,0,0,81.833,28.887Z" transform="translate(-15.724 -10.477)"/><path class="a" d="M69.894,42.123v1.415a.569.569,0,0,0,.583.583H80.8a.569.569,0,0,0,.583-.583V42.123a8.051,8.051,0,0,0,3.994-6.74.569.569,0,0,0-.583-.583H66.482a.569.569,0,0,0-.582.583A8.051,8.051,0,0,0,69.894,42.123Z" transform="translate(-13.105 -12.811)"/><path class="a" d="M87.739,50.1H59.029a2.829,2.829,0,0,0,0,5.659h25.88v25.3a2.829,2.829,0,0,0,5.659,0V52.929A2.806,2.806,0,0,0,87.739,50.1Z" transform="translate(-11.477 -15.379)"/><circle class="a" cx="8.155" cy="8.155" r="8.155" transform="matrix(0.108, -0.994, 0.994, 0.108, 18.498, 16.214)"/><path class="a" d="M29.455,62.083H17.721a5.638,5.638,0,0,1-5.575-4.66l-4.078-22.8a2.817,2.817,0,0,0-3.245-2.33,2.88,2.88,0,0,0-2.33,3.245L6.487,58.256a11.4,11.4,0,0,0,11.151,9.4h9.736V77.978a2.829,2.829,0,1,0,5.659,0V65.745A3.52,3.52,0,0,0,29.455,62.083Z" transform="translate(-2.457 -12.384)"/><path class="a" d="M41.479,49.928H34.072l1.914-8.821,5.243,2.5a3.726,3.726,0,0,0,1.664.333h.166l7.905-.333a3.733,3.733,0,0,0,3.578-3.911,3.785,3.785,0,0,0-3.911-3.578l-6.99.333s-7.905-4.161-8.9-4.327c-1.082-.25-5.575-1.248-5.575-1.248a5.97,5.97,0,0,0-4.577.832,6.143,6.143,0,0,0-2.58,3.828L18.677,51.343a6.113,6.113,0,0,0,1.165,4.91,5.642,5.642,0,0,0,4.577,2.164H37.484a1.492,1.492,0,0,1,1.5,1.5v16.31a4.244,4.244,0,1,0,8.488,0V56A5.985,5.985,0,0,0,41.479,49.928Z" transform="translate(-5.161 -12.128)"/></g></g></g></g></svg>