<svg xmlns="http://www.w3.org/2000/svg" width="20" height="14.441" viewBox="0 0 20 14.441"><defs><style>.a{fill:#fff;}</style></defs><path class="a" d="M70.015,196.125a5.008,5.008,0,0,1,2.389,1.351v-.293c0-3.433-.007-6.864.009-10.3a.841.841,0,0,0-.379-.757c-.043-.032-.087-.066-.133-.1a7.533,7.533,0,0,0-2.29-1,25.658,25.658,0,0,0-5.061-.878c-.377-.032-.757-.037-1.15-.053v10.971c.665.048,1.312.085,1.959.146A22.056,22.056,0,0,1,70.015,196.125Zm2.583,1.07v.281a4.285,4.285,0,0,1,1.931-1.193,22.777,22.777,0,0,1,6.153-1.152c.3-.021.61-.032.914-.048V184.109c-.151,0-.29-.011-.425,0-.88.082-1.765.144-2.64.263a18.713,18.713,0,0,0-3.952.921,5.176,5.176,0,0,0-1.778.978.584.584,0,0,0-.21.469Q72.605,191.967,72.6,197.195Zm9.333-11.317v9.545l-.142.011a25.812,25.812,0,0,0-5.986.807,6.581,6.581,0,0,0-3.314,1.586,3.9,3.9,0,0,0-1.671-1.07,22.952,22.952,0,0,0-6.37-1.271c-.45-.037-.905-.046-1.383-.071v-9.541H62.5v10.4c.176.009.338.021.5.027a31.109,31.109,0,0,1,5.717.69,7.961,7.961,0,0,1,3.8,1.547,3.961,3.961,0,0,1,1.618-.946,26.053,26.053,0,0,1,6.61-1.225c.581-.048,1.166-.064,1.758-.1v-10.4Z" transform="translate(-62.5 -184.1)"/></svg>