<svg xmlns="http://www.w3.org/2000/svg" width="17.107" height="14.51" viewBox="0 0 17.107 14.51"><defs><style>.a{fill:#fff;}</style></defs><g transform="translate(0 0)"><g transform="translate(0 5.59)"><path class="a" d="M8.068,26.994l-.126-1.9c-.024-.275-.254-.271-.535-.271H2.675c-.281,0-.511-.005-.534.271l-.126,1.9Zm1.34,1.946a.7.7,0,1,0-.7.706A.7.7,0,0,0,9.409,28.939Zm-2.322.97V28.642a.319.319,0,0,0-.318-.318l-3.352.006a.318.318,0,0,0-.317.318v1.267Zm-5.711-.264a.705.705,0,1,0-.7-.706A.705.705,0,0,0,1.376,29.646Zm6.272-5.538a1.034,1.034,0,0,1,1.029.947l.13,1.959,1.3.785,0,3.3H9.524v1.082a.841.841,0,1,1-1.681,0V31.1H2.237v1.082a.841.841,0,1,1-1.681,0V31.1H-.022l0-3.3,1.3-.785.13-1.959a1.034,1.034,0,0,1,1.028-.947Z" transform="translate(0.025 -24.108)"/></g><g transform="translate(9.799)"><path class="a" d="M34.225,23.482a.739.739,0,1,0-.739.741A.74.74,0,0,0,34.225,23.482Z" transform="translate(-31.427 -17.615)"/><path class="a" d="M29.7,11.356V7.631h-.741v4.5h6.1v5h-.876v-.87a.333.333,0,0,0-.1-.237L32.239,14.2a.539.539,0,0,0-.762,0l-1.072,1.07-.906-.659a.365.365,0,0,0-.516-.046.372.372,0,0,0-.034.523l1.152.9a.361.361,0,0,0,.271.121.37.37,0,0,0,.284-.134l.6-.6,1.49,1.493v.256H30.113v5.011h6.053V11.356Z" transform="translate(-28.857 -7.631)"/></g></g></svg>