<svg xmlns="http://www.w3.org/2000/svg" width="20" height="13.846" viewBox="0 0 20 13.846"><defs><style>.a{fill:#1a181a;}</style></defs><g transform="translate(-405 90)"><g transform="translate(405 -90)"><path class="a" d="M12.538,975.362a1.53,1.53,0,0,0-.825.24l8.574,7.925a.951.951,0,0,0,1.41,0l8.59-7.925a1.53,1.53,0,0,0-.825-.24Zm-1.458,1.05a1.54,1.54,0,0,0-.08.489V987.67a1.535,1.535,0,0,0,1.538,1.538H29.462A1.535,1.535,0,0,0,31,987.67V976.9a1.54,1.54,0,0,0-.08-.489l-8.526,7.869a2.058,2.058,0,0,1-2.8,0l-8.51-7.869Z" transform="translate(-11 -975.362)"/></g></g></svg>