<svg xmlns="http://www.w3.org/2000/svg" width="119.409" height="94.865" viewBox="0 0 119.409 94.865"><defs><style>.a{fill:#c42c32;}.b,.c{fill:none;stroke-width:8px;}.b{stroke:#c42c32;}.c{stroke:#fff;}</style></defs><g transform="translate(-138.096 -376.803)"><g transform="translate(51.801 -317)"><g transform="translate(97 694)"><g transform="translate(0 0)"><g transform="translate(0 0)"><path class="a" d="M70.119,31l.421,1.052a1.367,1.367,0,0,0,1.263.842.948.948,0,0,0,.526-.105A1.5,1.5,0,0,0,73.065,31l-.421-1.052a1.939,1.939,0,0,1,.316-2.1,4.755,4.755,0,0,0,.316-5.471l-.526-.842A1.3,1.3,0,0,0,70.54,22.9l.526.842a2.244,2.244,0,0,1-.105,2.42A4.355,4.355,0,0,0,70.119,31Z" transform="translate(1.052 -7.723)"/><path class="a" d="M76.019,31l.421,1.052a1.367,1.367,0,0,0,1.263.842.949.949,0,0,0,.526-.105A1.5,1.5,0,0,0,78.965,31l-.421-1.052a1.939,1.939,0,0,1,.316-2.1,4.755,4.755,0,0,0,.316-5.471l-.526-.842A1.3,1.3,0,1,0,76.44,22.9l.526.842a2.244,2.244,0,0,1-.105,2.42A4.355,4.355,0,0,0,76.019,31Z" transform="translate(1.359 -7.723)"/><path class="a" d="M81.921,31l.421,1.052a1.367,1.367,0,0,0,1.263.842.948.948,0,0,0,.526-.105A1.5,1.5,0,0,0,84.867,31l-.421-1.052a1.939,1.939,0,0,1,.316-2.1,4.755,4.755,0,0,0,.316-5.471l-.526-.842a1.3,1.3,0,1,0-2.21,1.368l.526.842a2.244,2.244,0,0,1-.105,2.42A4.18,4.18,0,0,0,81.921,31Z" transform="translate(1.666 -7.723)"/><path class="a" d="M70.95,44.059v1.789a.719.719,0,0,0,.737.737H84.734a.719.719,0,0,0,.737-.737V44.059a10.18,10.18,0,0,0,5.05-8.522.719.719,0,0,0-.737-.737H66.636a.719.719,0,0,0-.736.737A10.18,10.18,0,0,0,70.95,44.059Z" transform="translate(0.852 -6.998)"/><path class="a" d="M96.077,50.1h-36.3a3.577,3.577,0,0,0,0,7.155H92.5V89.24a3.577,3.577,0,0,0,7.155,0V53.677A3.548,3.548,0,0,0,96.077,50.1Z" transform="translate(0.346 -6.2)"/><circle class="a" cx="10.311" cy="10.311" r="10.311" transform="matrix(0.108, -0.994, 0.994, 0.108, 23.388, 20.501)"/><path class="a" d="M36.592,69.969H21.757a7.129,7.129,0,0,1-7.049-5.892L9.552,35.248a3.562,3.562,0,0,0-4.1-2.946,3.642,3.642,0,0,0-2.946,4.1L7.553,65.13a14.419,14.419,0,0,0,14.1,11.889h12.31V90.066a3.577,3.577,0,1,0,7.155,0V74.6A4.451,4.451,0,0,0,36.592,69.969Z" transform="translate(-2.457 -7.131)"/><path class="a" d="M47.536,55H38.172l2.42-11.153,6.629,3.156a4.71,4.71,0,0,0,2.1.421h.21l10-.421a4.72,4.72,0,0,0,4.524-4.945,4.785,4.785,0,0,0-4.945-4.524l-8.838.421s-10-5.261-11.258-5.471c-1.368-.316-7.049-1.578-7.049-1.578a7.548,7.548,0,0,0-5.787,1.052,7.767,7.767,0,0,0-3.262,4.84L18.707,56.792A7.729,7.729,0,0,0,20.18,63a7.133,7.133,0,0,0,5.787,2.736H42.486a1.886,1.886,0,0,1,1.894,1.894V88.251a5.366,5.366,0,1,0,10.732,0V62.684A7.567,7.567,0,0,0,47.536,55Z" transform="translate(-1.617 -7.21)"/></g></g></g></g><line class="b" x2="110.933" y2="83.429" transform="translate(140.5 385.042)"/><line class="c" x2="110.933" y2="83.429" transform="translate(144.167 380)"/></g></svg>