<svg xmlns="http://www.w3.org/2000/svg" width="104.181" height="104.181" viewBox="0 0 104.181 104.181"><defs><style>.a{fill:#c42c32;}</style></defs><path class="a" d="M104.181,100.265,12.7,8.78,9.167,5.251,5.821,1.905,0,7.726,20.121,27.847,30.251,49.206,24.063,60.435a8.862,8.862,0,0,0-1.146,4.4A9.194,9.194,0,0,0,32.084,74H66.276L72.6,80.327A9.139,9.139,0,1,0,85.343,93.069L98.36,106.086l5.821-5.821ZM34.009,64.835a1.135,1.135,0,0,1-1.146-1.146l.138-.55,4.125-7.471H47.942l9.167,9.167Zm37.263-9.167a9.123,9.123,0,0,0,8.021-4.721L95.7,21.2a4.478,4.478,0,0,0,.55-2.2,4.6,4.6,0,0,0-4.583-4.583H29.976ZM32.084,78.585a9.167,9.167,0,1,0,9.167,9.167A9.155,9.155,0,0,0,32.084,78.585Z" transform="translate(0 -1.905)"/></svg>