<svg xmlns="http://www.w3.org/2000/svg" width="20" height="13.35" viewBox="0 0 20 13.35"><defs><style>.a{fill:#fff;}</style></defs><path class="a" d="M9.436,166.5h1.076a1.285,1.285,0,0,0,.194.04,8.4,8.4,0,0,1,2.26.5,15,15,0,0,1,6.428,4.686,2.084,2.084,0,0,1-.012,2.906,15.744,15.744,0,0,1-3.8,3.37,11.618,11.618,0,0,1-3.84,1.642c-.406.086-.82.136-1.23.2H9.436a1.31,1.31,0,0,0-.2-.04,8.218,8.218,0,0,1-1.962-.41,14.931,14.931,0,0,1-6.77-4.832,2.222,2.222,0,0,1-.524-1.238,2.342,2.342,0,0,1,.648-1.71,15.959,15.959,0,0,1,3.846-3.352,11.364,11.364,0,0,1,3.922-1.61c.344-.066.69-.106,1.036-.158Zm-3.63,6.676a4.167,4.167,0,1,0,4.174-4.168,4.179,4.179,0,0,0-4.174,4.168Zm4.952-2.36c-.83.694-1.012,1.436-.524,2.142s1.232.794,2.222.248A2.474,2.474,0,0,1,10.91,175.5a2.5,2.5,0,0,1-2.9-3.876A2.456,2.456,0,0,1,10.758,170.816Z" transform="translate(0.022 -166.5)"/></svg>