<svg xmlns="http://www.w3.org/2000/svg" width="22.656" height="24.823" viewBox="0 0 22.656 24.823"><defs><style>.a{fill:#1a181a;stroke:#1a181a;}</style></defs><g transform="translate(484.099 566.177)"><g transform="translate(-486 -837.542)"><path class="a" d="M2.916,271.865a.517.517,0,0,0-.515.515v1.63a.517.517,0,0,0,.179.389l8.257,7.165V292.72a.517.517,0,0,0,.237.435l3.749,2.439a.517.517,0,0,0,.8-.431v-13.6l8.257-7.165a.517.517,0,0,0,.179-.389v-1.63a.517.517,0,0,0-.515-.515Zm.519,1.035H23.023v.874l-8.257,7.165a.517.517,0,0,0-.179.393V294.2l-2.714-1.764V281.332a.517.517,0,0,0-.179-.393l-8.257-7.165Z"/></g></g></svg>