<svg xmlns="http://www.w3.org/2000/svg" width="22" height="17.6" viewBox="0 0 22 17.6"><defs><style>.a{fill:#1a181a;}</style></defs><g transform="translate(-568 467)"><g transform="translate(568 -467)"><path class="a" d="M20.985,970.362a.592.592,0,0,0-.327.112l-10.45,8.25a.569.569,0,0,0-.095.782.578.578,0,0,0,.782.086L21,971.617l10.106,7.975a.554.554,0,0,0,.688-.868l-10.45-8.25A.627.627,0,0,0,20.985,970.362Zm-6.858,7.4-1.1.868v8.783a.55.55,0,0,0,.55.55H18.8a.55.55,0,0,0,.55-.55v-3.3a1.65,1.65,0,1,1,3.3,0v3.3a.55.55,0,0,0,.55.55h5.225a.55.55,0,0,0,.55-.55v-8.783l-1.1-.868v9.1H23.752v-2.75a2.75,2.75,0,1,0-5.5,0v2.75H14.127Z" transform="translate(-10 -970.362)"/></g></g></svg>