<svg xmlns="http://www.w3.org/2000/svg" width="15" height="15" viewBox="0 0 15 15"><defs><style>.a{fill:#c42c32;}</style></defs><path class="a" d="M8.063.562a7.5,7.5,0,1,0,7.5,7.5A7.5,7.5,0,0,0,8.063.562Zm0,3.327a1.27,1.27,0,1,1-1.27,1.27A1.27,1.27,0,0,1,8.063,3.889Zm1.694,7.681a.363.363,0,0,1-.363.363H6.732a.363.363,0,0,1-.363-.363v-.726a.363.363,0,0,1,.363-.363h.363V8.546H6.732a.363.363,0,0,1-.363-.363V7.458a.363.363,0,0,1,.363-.363H8.667a.363.363,0,0,1,.363.363v3.024h.363a.363.363,0,0,1,.363.363Z" transform="translate(-0.563 -0.563)"/></svg>