<svg xmlns="http://www.w3.org/2000/svg" width="27.091" height="27.091" viewBox="0 0 27.091 27.091"><path d="M13.545,0C9.865,0,9.406.017,7.961.081a9.988,9.988,0,0,0-3.288.63,6.633,6.633,0,0,0-2.4,1.562,6.609,6.609,0,0,0-1.562,2.4,9.959,9.959,0,0,0-.63,3.288C.014,9.406,0,9.865,0,13.545s.017,4.139.081,5.584a9.994,9.994,0,0,0,.63,3.288,6.643,6.643,0,0,0,1.562,2.4,6.624,6.624,0,0,0,2.4,1.562,10,10,0,0,0,3.288.63c1.445.068,1.9.081,5.584.081s4.139-.017,5.584-.081a10.024,10.024,0,0,0,3.288-.63,6.922,6.922,0,0,0,3.962-3.962,9.994,9.994,0,0,0,.63-3.288c.068-1.445.081-1.9.081-5.584s-.017-4.139-.081-5.584a10.017,10.017,0,0,0-.63-3.288,6.648,6.648,0,0,0-1.562-2.4,6.6,6.6,0,0,0-2.4-1.562,9.965,9.965,0,0,0-3.288-.63C17.684.014,17.225,0,13.545,0Zm0,2.438c3.615,0,4.047.018,5.475.08a7.463,7.463,0,0,1,2.514.468A4.457,4.457,0,0,1,24.1,5.557a7.479,7.479,0,0,1,.466,2.514c.064,1.429.079,1.858.079,5.475s-.017,4.047-.084,5.475a7.623,7.623,0,0,1-.475,2.514,4.3,4.3,0,0,1-1.015,1.56A4.226,4.226,0,0,1,21.519,24.1,7.534,7.534,0,0,1,19,24.571c-1.438.064-1.861.079-5.485.079s-4.048-.017-5.485-.084A7.681,7.681,0,0,1,5.5,24.091a4.2,4.2,0,0,1-1.557-1.015A4.113,4.113,0,0,1,2.93,21.519,7.687,7.687,0,0,1,2.456,19c-.051-1.422-.069-1.861-.069-5.468s.018-4.048.069-5.487A7.678,7.678,0,0,1,2.93,5.52,4.015,4.015,0,0,1,3.946,3.961,4.006,4.006,0,0,1,5.5,2.947,7.5,7.5,0,0,1,8.01,2.472C9.449,2.421,9.872,2.4,13.494,2.4l.051.034Zm0,4.152A6.956,6.956,0,1,0,20.5,13.545,6.955,6.955,0,0,0,13.545,6.59Zm0,11.471a4.515,4.515,0,1,1,4.515-4.515A4.514,4.514,0,0,1,13.545,18.06ZM22.4,6.315a1.625,1.625,0,1,1-1.625-1.624A1.627,1.627,0,0,1,22.4,6.315Z"/></svg>