<svg xmlns="http://www.w3.org/2000/svg" width="20" height="23.141" viewBox="0 0 20 23.141"><defs><style>.a{fill:#1a181a;}</style></defs><g transform="translate(-14.45 -6.9)"><g transform="translate(14.45 6.9)"><path class="a" d="M34.45,17.057V26.9a3.144,3.144,0,0,1-3.141,3.141H17.591A3.144,3.144,0,0,1,14.45,26.9V17.057A1.037,1.037,0,0,1,15.5,16.01h1.937V13.916a7.016,7.016,0,0,1,14.031,0V16.01H33.4a1.037,1.037,0,0,1,1.047,1.047Zm-5.079-3.141a4.921,4.921,0,1,0-9.843,0V16.01h9.843Z" transform="translate(-14.45 -6.9)"/></g></g></svg>