<svg xmlns="http://www.w3.org/2000/svg" xmlns:xlink="http://www.w3.org/1999/xlink" width="150.12" height="29.358" viewBox="0 0 150.12 29.358"><defs><style>.a{fill:url(#a);}.b{fill:url(#b);}.c{fill:url(#c);}.d{fill:url(#d);}.e{fill:url(#e);}.f{fill:url(#f);}.g{fill:url(#g);}</style><linearGradient id="a" x1="-2.778" y1="-1.367" x2="8.255" y2="4.917" gradientUnits="objectBoundingBox"><stop offset="0" stop-color="#d22"/><stop offset="1" stop-color="#8b3068"/></linearGradient><linearGradient id="b" x1="-3.083" y1="-1.823" x2="6.276" y2="4.597" xlink:href="#a"/><linearGradient id="c" x1="-4.545" y1="-2.398" x2="6.421" y2="4.068" xlink:href="#a"/><linearGradient id="d" x1="-5.468" y1="-2.101" x2="5.568" y2="2.669" xlink:href="#a"/><linearGradient id="e" x1="-6.227" y1="-3.333" x2="4.802" y2="2.952" xlink:href="#a"/><linearGradient id="f" x1="-7.097" y1="-3.828" x2="3.935" y2="2.457" xlink:href="#a"/><linearGradient id="g" x1="-7.509" y1="-4.483" x2="2.883" y2="1.982" xlink:href="#a"/></defs><g transform="translate(-98.864 -53.54)"><g transform="translate(98.864 53.54)"><path class="a" d="M2442.427,673.264v-1.731a5.63,5.63,0,0,0-2.116-4.581,8.335,8.335,0,0,0-5.433-1.737,8.251,8.251,0,0,0-5.4,1.737,5.629,5.629,0,0,0-2.117,4.581v9.652a5.62,5.62,0,0,0,2.117,4.576,8.253,8.253,0,0,0,5.4,1.736,8.338,8.338,0,0,0,5.433-1.736,5.621,5.621,0,0,0,2.116-4.576v-5.1h-7.49v2.845h4.086v2.259a3.028,3.028,0,0,1-1.186,2.583,4.857,4.857,0,0,1-2.96.884,4.408,4.408,0,0,1-2.836-.884,3.142,3.142,0,0,1-1.094-2.583v-9.652a3.112,3.112,0,0,1,1.131-2.538,4.231,4.231,0,0,1,2.8-.93,4.615,4.615,0,0,1,2.937.943,3.043,3.043,0,0,1,1.209,2.524v1.731Z" transform="translate(-2427.361 -665.215)"/><path class="b" d="M2477.439,665.521h-3.6l-7.174,21.809h3.811l1.6-5.355h6.958l1.612,5.355h3.775Zm-4.517,13.61,2.629-8.818,2.657,8.818Z" transform="translate(-2446.065 -665.361)"/><path class="c" d="M2527.179,681.586q-.583-3.587-3.032-4.517a4.739,4.739,0,0,0,3.563-5.007v-.435a5.5,5.5,0,0,0-1.7-4.251,6.908,6.908,0,0,0-4.855-1.566h-8.2v21.658h3.587V678.59h3.284a4.659,4.659,0,0,1,2.657.618,3.849,3.849,0,0,1,1.209,2.657l.834,5.6h3.586Zm-3.06-9q0,3.147-3.344,3.152h-4.237v-7.086h4.237a3.377,3.377,0,0,1,2.51.857,3.152,3.152,0,0,1,.834,2.3Z" transform="translate(-2468.087 -665.498)"/><path class="d" d="M2569.864,673.264v-1.731a5.614,5.614,0,0,0-2.117-4.581,9.308,9.308,0,0,0-10.828,0,5.628,5.628,0,0,0-2.117,4.581v9.652a5.618,5.618,0,0,0,1.9,4.393,7.883,7.883,0,0,0,4.929,1.888v2.689h.962c1.141,0,1.7.426,1.7,1.268v.16q0,1.388-1.576,1.388a6.95,6.95,0,0,1-2.666-.527l-.431,1.393a6.82,6.82,0,0,0,3.147.737,4.49,4.49,0,0,0,2.766-.935,2.679,2.679,0,0,0,.893-2.057v-.311q0-2.6-3.092-2.607h-.311v-1.2a7.887,7.887,0,0,0,4.933-1.888,5.6,5.6,0,0,0,1.9-4.393v-1.732h-3.4v1.732a3.026,3.026,0,0,1-1.187,2.583,4.85,4.85,0,0,1-2.954.884,4.406,4.406,0,0,1-2.836-.884,3.114,3.114,0,0,1-1.094-2.583v-9.652a3.1,3.1,0,0,1,1.131-2.538,4.231,4.231,0,0,1,2.8-.93,4.622,4.622,0,0,1,2.936.943,3.038,3.038,0,0,1,1.205,2.524v1.731Z" transform="translate(-2488.001 -665.215)"/><path class="e" d="M2609.891,666.952a9.309,9.309,0,0,0-10.829,0,5.619,5.619,0,0,0-2.122,4.581v9.652a5.609,5.609,0,0,0,2.122,4.576,9.311,9.311,0,0,0,10.829,0,5.61,5.61,0,0,0,2.121-4.576v-9.652A5.62,5.62,0,0,0,2609.891,666.952Zm-1.471,14.232a3.087,3.087,0,0,1-1.131,2.533,4.7,4.7,0,0,1-5.626,0,3.1,3.1,0,0,1-1.136-2.533v-9.652a3.115,3.115,0,0,1,1.136-2.538,4.72,4.72,0,0,1,5.626,0,3.1,3.1,0,0,1,1.131,2.538Z" transform="translate(-2508.052 -665.215)"/><path class="f" d="M2652.573,666.952a9.316,9.316,0,0,0-10.833,0,5.615,5.615,0,0,0-2.116,4.581v9.652a5.606,5.606,0,0,0,2.116,4.576,9.319,9.319,0,0,0,10.833,0,5.618,5.618,0,0,0,2.116-4.576v-9.652A5.628,5.628,0,0,0,2652.573,666.952Zm-1.475,14.232a3.084,3.084,0,0,1-1.132,2.533,4.7,4.7,0,0,1-5.625,0,3.1,3.1,0,0,1-1.136-2.533v-9.652a3.115,3.115,0,0,1,1.136-2.538,4.718,4.718,0,0,1,5.625,0,3.1,3.1,0,0,1,1.132,2.538Z" transform="translate(-2528.361 -665.215)"/><path class="g" d="M2695.836,665.81v10.023c0,1.3.042,3.106.147,5.414l-8.964-15.437h-3.779v21.658h3.4V677.445c0-1.319-.05-3.142-.156-5.479l9.157,15.5h3.592V665.81Z" transform="translate(-2549.115 -665.498)"/></g></g></svg>