<svg xmlns="http://www.w3.org/2000/svg" width="194.248" height="183.762" viewBox="0 0 194.248 183.762"><defs><style>.a{fill:#461c5f;}</style></defs><g transform="translate(-3074.945 -450.29)"><g transform="translate(3074.945 596.064)"><path class="a" d="M3094.44,675.63v-2.24a7.283,7.283,0,0,0-2.739-5.927,12.055,12.055,0,0,0-14.018,0,7.284,7.284,0,0,0-2.738,5.927v12.489a7.272,7.272,0,0,0,2.738,5.921,12.058,12.058,0,0,0,14.018,0,7.271,7.271,0,0,0,2.739-5.921v-6.6h-9.692v3.681h5.287v2.923a3.916,3.916,0,0,1-1.535,3.342,6.282,6.282,0,0,1-3.829,1.144,5.7,5.7,0,0,1-3.669-1.144,4.065,4.065,0,0,1-1.416-3.342V673.389a4.024,4.024,0,0,1,1.464-3.284,5.473,5.473,0,0,1,3.622-1.2,5.969,5.969,0,0,1,3.8,1.221,3.937,3.937,0,0,1,1.565,3.266v2.24Z" transform="translate(-3074.945 -665.215)"/><path class="a" d="M3128.188,665.521h-4.653l-9.282,28.22h4.932l2.074-6.929h9l2.086,6.929h4.884Zm-5.844,17.61,3.4-11.41,3.438,11.41Z" transform="translate(-3087.592 -665.314)"/><path class="a" d="M3178.945,686.223q-.756-4.641-3.924-5.845,4.614-1.431,4.612-6.479v-.563a7.115,7.115,0,0,0-2.2-5.5,8.943,8.943,0,0,0-6.283-2.027h-10.609v28.024h4.641V682.347h4.25a6.028,6.028,0,0,1,3.438.8c.771.528,1.292,1.683,1.565,3.438l1.079,7.249h4.64Zm-3.96-11.642q0,4.073-4.327,4.078h-5.483v-9.169h5.483a4.37,4.37,0,0,1,3.248,1.108,4.082,4.082,0,0,1,1.078,2.982Z" transform="translate(-3102.483 -665.406)"/><path class="a" d="M3221.875,675.63v-2.24a7.268,7.268,0,0,0-2.739-5.927,12.045,12.045,0,0,0-14.012,0,7.284,7.284,0,0,0-2.738,5.927v12.489a7.272,7.272,0,0,0,2.459,5.684,10.2,10.2,0,0,0,6.378,2.442v3.479h1.245c1.476,0,2.2.551,2.2,1.641v.208q0,1.8-2.039,1.8a9,9,0,0,1-3.451-.682l-.557,1.8a8.822,8.822,0,0,0,4.073.954,5.812,5.812,0,0,0,3.58-1.209,3.467,3.467,0,0,0,1.156-2.661v-.4q0-3.369-4-3.373h-.4V694a10.2,10.2,0,0,0,6.384-2.442,7.253,7.253,0,0,0,2.46-5.684v-2.241h-4.4v2.241a3.917,3.917,0,0,1-1.535,3.342,6.277,6.277,0,0,1-3.823,1.144,5.7,5.7,0,0,1-3.669-1.144,4.029,4.029,0,0,1-1.416-3.342V673.389a4.008,4.008,0,0,1,1.464-3.284,5.474,5.474,0,0,1,3.622-1.2,5.981,5.981,0,0,1,3.8,1.221,3.932,3.932,0,0,1,1.559,3.266v2.24Z" transform="translate(-3115.949 -665.215)"/><path class="a" d="M3261.281,667.462a12.045,12.045,0,0,0-14.012,0,7.272,7.272,0,0,0-2.744,5.927v12.489a7.26,7.26,0,0,0,2.744,5.921,12.048,12.048,0,0,0,14.012,0,7.259,7.259,0,0,0,2.745-5.921V673.389A7.271,7.271,0,0,0,3261.281,667.462Zm-1.9,18.416a3.994,3.994,0,0,1-1.464,3.277,6.081,6.081,0,0,1-7.279,0,4.017,4.017,0,0,1-1.469-3.277V673.389a4.03,4.03,0,0,1,1.469-3.284,6.106,6.106,0,0,1,7.279,0,4.008,4.008,0,0,1,1.464,3.284Z" transform="translate(-3129.507 -665.215)"/><path class="a" d="M3303.963,667.462a12.055,12.055,0,0,0-14.018,0,7.265,7.265,0,0,0-2.738,5.927v12.489a7.253,7.253,0,0,0,2.738,5.921,12.058,12.058,0,0,0,14.018,0,7.272,7.272,0,0,0,2.738-5.921V673.389A7.284,7.284,0,0,0,3303.963,667.462Zm-1.909,18.416a3.994,3.994,0,0,1-1.464,3.277,6.08,6.08,0,0,1-7.278,0,4.014,4.014,0,0,1-1.471-3.277V673.389a4.028,4.028,0,0,1,1.471-3.284,6.1,6.1,0,0,1,7.278,0,4.008,4.008,0,0,1,1.464,3.284Z" transform="translate(-3143.239 -665.215)"/><path class="a" d="M3347.123,665.81v12.969c0,1.683.054,4.019.19,7.006l-11.6-19.975h-4.89v28.024h4.4V680.865c0-1.707-.065-4.066-.2-7.089l11.848,20.058h4.647V665.81Z" transform="translate(-3157.273 -665.406)"/></g><g transform="translate(3119.764 450.29)"><g transform="translate(13.343)"><g transform="translate(0 107.428)"><path class="a" d="M3165.781,611.981c2.5,2.253,5.04,4.619,7.248,6.841A52.356,52.356,0,0,1,3160.7,608.68h1.356c1.054.916,2.146,1.883,3.257,2.881C3165.467,611.7,3165.624,611.843,3165.781,611.981Z" transform="translate(-3160.697 -608.68)"/><path class="a" d="M3182.1,628.515a1.951,1.951,0,0,1-.753.345,2.194,2.194,0,0,1-.4.018.08.08,0,0,0,.006.038,1.089,1.089,0,0,1-1.11-.49c-.019-.037-.038-.062-.05-.087,0-.007-.006-.007-.006-.013a2.108,2.108,0,0,1-.314-.948c-.019-.151-.032-.282-.044-.4q-.075-.7-.131-1.374c-.063-.671-.114-1.331-.152-1.971.145.1.283.2.421.3s.288.207.426.308c.176.125.352.257.515.389.006.132.018.264.031.4.056.7.126,1.412.207,2.141.013.125.025.251.044.383.006,0,.006.006.012.006a.286.286,0,0,0,.069.025.475.475,0,0,0,.446-.119,1.231,1.231,0,0,0,.484-1.093,3.166,3.166,0,0,0-1.293-1.738c-.013-.119-.026-.238-.032-.357-.031-.458-.062-.91-.088-1.349.126.087.251.182.377.27a5.053,5.053,0,0,1,2.316,2.943A2.518,2.518,0,0,1,3182.1,628.515Z" transform="translate(-3166.633 -613.265)"/><path class="a" d="M3179.6,623.618c-.163-.132-.339-.263-.515-.389-.138-.1-.282-.208-.426-.308s-.277-.2-.421-.3c-.427-.3-.872-.608-1.33-.916,0-.006-.007-.018-.007-.025-.069-.213-.138-.421-.2-.627v-.006c-.126-.414-.251-.822-.365-1.224l-.019-.056c.577.376,1.142.747,1.676,1.111.05.031.1.069.151.1v.006a.23.23,0,0,0,.056.031c.446.308.872.6,1.281.9.025.439.056.891.087,1.349C3179.573,623.38,3179.586,623.5,3179.6,623.618Z" transform="translate(-3165.722 -612.247)"/><path class="a" d="M3182.2,631.674a2.121,2.121,0,0,1-.389.056.083.083,0,0,1-.006-.038A2.183,2.183,0,0,0,3182.2,631.674Z" transform="translate(-3167.488 -616.078)"/><path class="a" d="M3238.14,624.783a.643.643,0,0,1-.684.608.144.144,0,0,1-.051-.006h-.012a.659.659,0,0,1-.4-.722.64.64,0,0,1,.753-.527c.132.025.264.044.4.062C3238.146,624.463,3238.146,624.663,3238.14,624.783Z" transform="translate(-3185.241 -613.649)"/></g><g transform="translate(12.356)"><g transform="translate(0.965 68.708)"><path class="a" d="M3181.566,598.953a.647.647,0,0,1-.644-.582c-2.043-20.015,1.446-29.122,7.78-45.655l.272-.708a.648.648,0,0,1,1.21.463l-.271.709c-6.264,16.347-9.713,25.352-7.7,45.06a.648.648,0,0,1-.578.71A.558.558,0,0,1,3181.566,598.953Z" transform="translate(-3180.338 -551.591)"/></g><g transform="translate(9.558 68.708)"><path class="a" d="M3207.779,556.463a.651.651,0,0,1-.107-.009c-.688-.115-1.448-.227-2.252-.347-4.051-.6-9.093-1.35-12.12-3.325a.648.648,0,0,1,.708-1.085c2.791,1.82,7.676,2.545,11.6,3.128.812.121,1.579.235,2.274.351a.648.648,0,0,1-.106,1.287Z" transform="translate(-3193.007 -551.591)"/></g><g transform="translate(22.457 61.049)"><path class="a" d="M3215.012,568.929a.684.684,0,0,0,.107-.38.636.636,0,0,0-.148-.385c-.332-7.741-.5-18.463-.391-25.718.012-.445.019-.878.024-1.292.006-.071.006-.131.006-.2a.647.647,0,0,0-1.292-.041l-.006.142-.065,1.292-.421,9.009-.054,1.3-.747,15.938a.663.663,0,0,0,.189.492.635.635,0,0,0,.481.189l1.031-.035c.029.652.059,1.28.1,1.885a.207.207,0,0,0,.006.065.363.363,0,0,0,.011.083.632.632,0,0,0,.445.474.17.17,0,0,0,.059.012.729.729,0,0,0,.125.012h.035a.649.649,0,0,0,.611-.682c-.006-.154-.018-.3-.024-.462C3215.059,570.085,3215.036,569.522,3215.012,568.929Zm-1.66-.973.172-3.746c.042,1.293.094,2.549.142,3.741Z" transform="translate(-3212.024 -540.299)"/></g><g transform="translate(24.255 91.228)"><path class="a" d="M3226.876,587.77a42.334,42.334,0,0,1-11.733-1.7.648.648,0,0,1,.361-1.245,39.748,39.748,0,0,0,15.3,1.439.648.648,0,0,1,.143,1.288A36.814,36.814,0,0,1,3226.876,587.77Z" transform="translate(-3214.676 -584.795)"/></g><g transform="translate(38.962 63.887)"><path class="a" d="M3237.853,574.558a.648.648,0,0,1-.647-.613l-.062-1.16c-.448-8.38-1.061-19.859-.649-27.688a.655.655,0,0,1,.681-.613.648.648,0,0,1,.613.681c-.408,7.76.228,19.67.649,27.551l.062,1.159a.648.648,0,0,1-.613.682Z" transform="translate(-3236.36 -544.484)"/></g><g transform="translate(39.097 73.885)"><path class="a" d="M3240.11,560.864a12.041,12.041,0,0,1-1.9-.192c-.3-.045-.656-.1-1.088-.157a.648.648,0,0,1,.176-1.284c.438.06.8.113,1.1.159a10.365,10.365,0,0,0,3.664.035.648.648,0,0,1,.136,1.289A20.608,20.608,0,0,1,3240.11,560.864Z" transform="translate(-3236.559 -559.225)"/></g><g transform="translate(13.855 27.346)"><path class="a" d="M3230.154,538.64a.648.648,0,0,1,0-1.3c3.645,0,9.569-3.98,10.415-6.022.1-.238.108-.4.029-.479-.554-.5-4.386.2-6.022.5-2.679.491-3.4.623-3.734-.012a.783.783,0,0,1,.2-.95,4.277,4.277,0,0,1,2.432-.7,8.7,8.7,0,0,0,2.112-.419c-.883-.088-2.412-.122-3.341-.143-.757-.017-1.41-.031-1.854-.06-.815-.017-1.5-.025-2.062-.032-2.386-.029-2.816-.034-3.558-.776a.647.647,0,0,1-.19-.452c-.526-.814-6.166-1.018-9.543-1.14-7.134-.258-11.183-.5-11.452-2.447a48.65,48.65,0,0,1,.067-8.327c.46-8.075,1.034-18.126-4.158-24.213a.648.648,0,1,1,.986-.841c5.53,6.483,4.94,16.821,4.465,25.128a48.14,48.14,0,0,0-.076,8.076s.194.526,2.964.882c2,.256,4.667.353,7.25.447,6.713.243,10.4.457,10.763,2.12.259.206.594.225,2.5.247.565.007,1.255.015,2.1.034.445.028,1.117.043,1.827.058,3.937.087,4.965.149,4.965,1.07a1.587,1.587,0,0,1-.151.7c2.227-.327,3.751-.348,4.423.324a1.618,1.618,0,0,1,.251,1.892c-.631,1.522-2.843,3.273-4.7,4.4A14.543,14.543,0,0,1,3230.154,538.64Z" transform="translate(-3199.343 -490.608)"/></g><g transform="translate(6.416 26.965)"><path class="a" d="M3190.285,530.395a.648.648,0,0,1-.61-.43c-1.5-4.208-1.7-10.164-.6-18.207a18.009,18.009,0,0,1,1.682-5.062,22.6,22.6,0,0,0,1.309-3.37,26.581,26.581,0,0,0,.358-3.488c.343-4.988.742-8.865,2.464-9.65a1.85,1.85,0,0,1,1.968.372.648.648,0,1,1-.781,1.034c-.2-.149-.469-.309-.65-.226-1.156.526-1.515,5.752-1.708,8.559a25.191,25.191,0,0,1-.4,3.74,23.958,23.958,0,0,1-1.378,3.562,16.762,16.762,0,0,0-1.58,4.705c-1.068,7.833-.891,13.589.541,17.6a.648.648,0,0,1-.61.865Z" transform="translate(-3188.375 -490.047)"/></g><g transform="translate(0 66.018)"><path class="a" d="M3196.168,562.307c-.452.446-.872.866-1.179,1.211-.841.941-1.675,1.858-2.492,2.742-1.016,1.111-2.008,2.2-2.956,3.283-.439.5-.866,1.01-1.286,1.519a31.908,31.908,0,0,0-7.048,13.737c-.007.007-.007.007-.007.013a42.86,42.86,0,0,0-1,9.263v.013q-.028,2.108.106,4.468a1.069,1.069,0,0,0,.013.145c.025.439.057.891.087,1.349.006.119.019.239.032.357-.163-.132-.339-.263-.515-.389-.137-.1-.282-.208-.426-.308s-.277-.2-.421-.3a.147.147,0,0,1-.006-.05.3.3,0,0,0-.006-.075c-.031-.515-.056-1.017-.082-1.513v-.006a50.034,50.034,0,0,1,.922-12.9c0-.006,0-.006.006-.012a32.94,32.94,0,0,1,1.613-5.272l.006-.006c2.354-5.824,6.057-9.866,10.017-14.19.81-.885,1.644-1.795,2.473-2.73.338-.376.778-.816,1.243-1.274,1.933-1.914,4.581-4.531,3.527-6.64a2.181,2.181,0,0,0-.151-.257,4.917,4.917,0,0,0-1.694-1.607h-.006s-.007,0-.007-.006a22.74,22.74,0,0,0-4.933-1.952,18.58,18.58,0,0,1-5.007-2.052c0-.006-.007-.006-.007-.006a.955.955,0,0,1-.107-.069.647.647,0,1,1,.759-1.048c.05.038.1.069.151.1a18.572,18.572,0,0,0,4.594,1.839c2.717.841,5.517,1.713,7.01,3.609a5.156,5.156,0,0,1,.552.866,2.942,2.942,0,0,1,.22.564C3201.02,557.506,3198.126,560.368,3196.168,562.307Z" transform="translate(-3178.915 -547.626)"/></g><g transform="translate(1.546 108.154)"><path class="a" d="M3181.842,617.666a.648.648,0,0,1-.593-.907c1.488-3.42,3.061-4.649,6.2-6.888a.648.648,0,0,1,.753,1.055c-3.017,2.155-4.408,3.239-5.762,6.351A.648.648,0,0,1,3181.842,617.666Z" transform="translate(-3181.194 -609.75)"/></g><g transform="translate(7.463 87.514)"><path class="a" d="M3220.438,615.545c-.037.6-.062,3.37-.088,5.811-.012,1.914-.031,3.571-.05,4.042a.64.64,0,0,1-.263.5,6.719,6.719,0,0,1-3.239.941,7.515,7.515,0,0,0-2.24.483,10.191,10.191,0,0,1-4.425,1.111,7.751,7.751,0,0,1-.854-.044,7.543,7.543,0,0,0-.922-.031,4.877,4.877,0,0,1-1.77-.2,9.525,9.525,0,0,1-1.512-.728,8.668,8.668,0,0,0-1.261-.627,15.627,15.627,0,0,0-6.245-.3c-2.435.195-4.958.4-7.255-.565a.644.644,0,0,1-.4-.6c-.006-3.621.113-7.782.3-12.175q.029-.659.056-1.318c.195-4.375.446-8.943.69-13.45.345-6.213.671-12.118.829-17.139.012-.446.025-.885.037-1.312a.645.645,0,0,1,1.249-.207.624.624,0,0,1,.044.244c-.138,5.309-.49,11.711-.866,18.489-.251,4.644-.514,9.369-.715,13.857-.013.439-.032.878-.05,1.312-.17,4.048-.277,7.876-.283,11.252a15.29,15.29,0,0,0,6.251.314,16.817,16.817,0,0,1,6.765.364,9.925,9.925,0,0,1,1.481.716,8.3,8.3,0,0,0,1.281.633,3.931,3.931,0,0,0,1.355.138,8.1,8.1,0,0,1,1.08.037,8.468,8.468,0,0,0,4.575-.947,8.553,8.553,0,0,1,2.643-.6,7.427,7.427,0,0,0,2.372-.54c.019-.709.032-2.153.044-3.665.025-2.335.044-4.738.069-5.642h.006c0-.094,0-.169.006-.233a.666.666,0,0,1,.691-.608.657.657,0,0,1,.6.571A.638.638,0,0,1,3220.438,615.545Z" transform="translate(-3189.918 -579.319)"/></g><g transform="translate(21.701 94.016)"><path class="a" d="M3214.132,588.907a.639.639,0,0,0-.664.61c-.005.13-.024.267-.029.409a3.8,3.8,0,0,1-.2.6c-.373.96-1.061,2.744-1.8,8.974a73.744,73.744,0,0,0,.059,18.143c.036.237.059.463.089.688.017.165.047.338.072.5.03.26.065.515.1.776a44.1,44.1,0,0,1,.438,8.8.707.707,0,0,0,.03.231c-.012.2-.017.4-.03.587-.011.308-.035.587-.047.859a.648.648,0,0,0,.605.682h.042a.643.643,0,0,0,.645-.6,1.942,1.942,0,0,0,.019-.273c.136-2.324.254-5.939.373-10.171.012-.415.024-.836.03-1.257.071-2.465.136-5.1.2-7.795.2-8.1.4-16.472.658-20.6a2.444,2.444,0,0,0,.036-.528A.655.655,0,0,0,3214.132,588.907Zm-1.4,10.758c.143-1.239.284-2.3.433-3.195-.137,4.137-.266,9.2-.392,14.171-.041,1.885-.094,3.752-.135,5.554A72.7,72.7,0,0,1,3212.727,599.664Z" transform="translate(-3210.91 -588.906)"/></g><g transform="translate(36.714 94.029)"><path class="a" d="M3236.874,613.457a.643.643,0,0,1-.684.608.144.144,0,0,1-.051-.006h-.012a.651.651,0,0,1-.546-.678c.025-.4-.012-1.418-.075-2.761-.006-.182-.019-.364-.025-.559-.145-2.711-.383-6.4-.546-8.8-.258,6.207-.5,13.142-.571,15.96-.019.672-.025,1.11-.019,1.249v.037a.457.457,0,0,1-.037.188v.006a.654.654,0,0,1-.59.439h-.025a.641.641,0,0,1-.584-.37.678.678,0,0,1-.062-.251V618.4c0-.176,0-.483.013-.9.057-2.423.276-8.522.489-13.939.4-10.073.559-13,.7-13.945v-.056h.006c.056-.333.106-.383.169-.452a.562.562,0,0,1,.063-.057h.007a.653.653,0,0,1,.734-.037h.006a.4.4,0,0,1,.119.088.647.647,0,0,1,.189.458c0,1.682.313,6.263.62,10.694.126,1.883.277,4.236.408,6.433.075,1.287.144,2.517.2,3.571v.006c.056,1.1.094,2.015.1,2.6C3236.88,613.137,3236.88,613.338,3236.874,613.457Z" transform="translate(-3233.046 -588.924)"/></g><g transform="translate(39.097 74.228)"><path class="a" d="M3237.207,601.572a.631.631,0,0,1-.2-.032.648.648,0,0,1-.418-.815c.32-.994.625-1.927.915-2.813,2.657-8.128,3.989-12.206,3.974-22.58-.032-1.292-.163-2.725-.3-4.24-.35-3.822-.712-7.773.336-10.919a.648.648,0,0,1,1.23.41c-.963,2.887-.614,6.7-.275,10.39.14,1.538.274,2.991.308,4.342.015,10.6-1.34,14.742-4.039,23-.29.884-.593,1.816-.913,2.807A.648.648,0,0,1,3237.207,601.572Z" transform="translate(-3236.559 -559.73)"/></g><g transform="translate(37.659 36.789)"><path class="a" d="M3243.823,533.545a.639.639,0,0,1-.273-.061.647.647,0,0,1-.314-.861,55.714,55.714,0,0,0,2.6-7.443c.422-1.405.858-2.858,1.384-4.482.572-1.952,1.354-4.808,2.047-7.526-.629,1.968-1.758,5.452-2.947,8.864-3.546,10.181-4.22,10.116-4.873,10.056a14.112,14.112,0,0,1-6.7-2.1.648.648,0,0,1,.683-1.1,12.6,12.6,0,0,0,5.929,1.894c1.076-1.266,4.458-10.907,7.177-19.606l.069-.221c1.986-6.423,2.161-6.423,2.743-6.423a.733.733,0,0,1,.591.3c.254.338.569.76-1.222,7.88-.873,3.469-1.9,7.136-2.263,8.37-.527,1.627-.961,3.073-1.381,4.472a56.565,56.565,0,0,1-2.661,7.618A.648.648,0,0,1,3243.823,533.545Z" transform="translate(-3234.439 -504.531)"/></g><g transform="translate(37.66 34.484)"><path class="a" d="M3251.3,503.077c.005,0,.005-.006.005-.006s0-.006-.005-.006a.635.635,0,0,0-.362-.539,11.611,11.611,0,0,0-5.667-1.369,4.53,4.53,0,0,0-3.26,1.695c-.439.551-.006,1.227.782,2.442a8.158,8.158,0,0,1,.931,1.695c-1.043,6.8-4.481,12.791-7.8,18.576-.457.812-.931,1.606-1.375,2.419a.006.006,0,0,0-.006.005c-.006.006-.006.012-.012.018s-.005.012-.012.018a.8.8,0,0,0-.053.154.406.406,0,0,0-.024.077.415.415,0,0,0-.006.089.35.35,0,0,0,.012.113.2.2,0,0,0,.011.054.732.732,0,0,0,.06.154.563.563,0,0,0,.054.071.5.5,0,0,0,.053.065,1.056,1.056,0,0,0,.119.095c.006.005.012.005.018.012s.006.006.012.006a.644.644,0,0,0,.308.077.659.659,0,0,0,.569-.326c.1-.184.208-.368.314-.551q.532-.951,1.084-1.9c3.384-5.9,6.876-12,7.96-19.05.094-.617-.367-1.375-1.132-2.566-.225-.356-.54-.848-.682-1.132,1.369-1.47,3.788-1.393,7.183.231a.574.574,0,0,0,.38.054h.006a.633.633,0,0,0,.45-.3.242.242,0,0,0,.03-.053.627.627,0,0,0,.059-.267v-.012a.039.039,0,0,1-.005-.024c.005,0,.005-.006.005-.006A.005.005,0,0,0,3251.3,503.077Z" transform="translate(-3234.44 -501.133)"/></g><g transform="translate(42.697 28.66)"><path class="a" d="M3253.053,500.917a.643.643,0,0,1-.241-.047c-5.22-2.1-8.863-4.552-10.826-7.3a.648.648,0,0,1,1.055-.753c1.816,2.543,5.266,4.848,10.253,6.85a.648.648,0,0,1-.242,1.249Z" transform="translate(-3241.866 -492.546)"/></g><g transform="translate(28.988 24.332)"><path class="a" d="M3236.882,491.379a1.062,1.062,0,0,0-.125-.106c-.036-.024-.071-.053-.1-.071a.675.675,0,0,0-.137-.456.446.446,0,0,0-.107-.106.578.578,0,0,0-.065-.041c-.005-.006-.005-.012-.012-.012a.117.117,0,0,0-.036-.023c-.005,0-.012-.006-.018-.006a.5.5,0,0,0-.125-.041.656.656,0,0,0-.148-.018.6.6,0,0,0-.147.018c-.012.005-.03.005-.042.012a.254.254,0,0,0-.094.036h-.006a.346.346,0,0,0-.107.071c-.035.03-.065.06-.094.089-.006.006-.012.006-.012.012l-.005.006c-.273.338-.528.658-.765.966a25.864,25.864,0,0,0-1.808,2.638.93.93,0,0,1-.119.083c-1,.6-1.843.142-3.242-1.049a17.577,17.577,0,0,1-3.544-4.552c-.741-1.227-1.3-2.169-2.062-2.519a1.533,1.533,0,0,0-.462-.13,1.571,1.571,0,0,0-.64.059,2.446,2.446,0,0,0-.983.652c-.386.38-.392.777,1.024,3.711.676,1.393,1.458,2.893,1.648,3.213,1.9,3.247,3.391,4.753,4.725,4.706a1.893,1.893,0,0,0,1.387-.747c.106.907.249,2.27.427,4.078.023.2.047.414.065.628l.065.664.113,1.108c.314,3.177-.829,8.517-1.606,12.11v.035a.42.42,0,0,0-.03.077c-.824,3.8-.972,4.481-.29,4.818a1.1,1.1,0,0,0,.2.077,1.062,1.062,0,0,0,.3.041,1.185,1.185,0,0,0,.569-.148c2.774-1.517,5.2-19.4,5.495-21.682,0-.006.006-.012.006-.024.012-.131.023-.2.023-.22a.64.64,0,0,0-.575-.705c-.012,0-.018,0-.023-.005h-.018a.635.635,0,0,0-.61.4.046.046,0,0,0-.012.024.516.516,0,0,0-.047.16c-.048.45-.166,1.369-.35,2.6v.012c-.326,2.211-.853,5.423-1.488,8.595-1.084,5.406-1.926,7.806-2.441,8.873.142-.723.337-1.66.527-2.531.847-3.894,2-9.217,1.66-12.625l-.113-1.15v-.006l-.065-.617c-.024-.237-.042-.456-.071-.676v-.006c-.2-2.056-.344-3.455-.451-4.327a6.321,6.321,0,0,0-.261-1.369,2.7,2.7,0,0,0,.486.012,1.848,1.848,0,0,0,.012,1.523,1.227,1.227,0,0,0,1.328.581,6.3,6.3,0,0,0,4.279-3.918c.018-.06.03-.119.042-.178A2.562,2.562,0,0,0,3236.882,491.379Zm-6.8,4.843c-.2.391-.486.978-.853,1-.285.018-1.346-.254-3.563-4.072a53.816,53.816,0,0,1-2.661-5.536.587.587,0,0,1,.332-.149c.379.047,1.013,1.1,1.577,2.033a18.5,18.5,0,0,0,3.812,4.866,9.077,9.077,0,0,0,1.76,1.257A1.936,1.936,0,0,0,3230.083,496.222Zm6.248-1.926a5.158,5.158,0,0,1-3.041,2.519,4.1,4.1,0,0,1,.676-1.695,10.077,10.077,0,0,0,1-1.346,7.23,7.23,0,0,1,1.084-1.4A1.4,1.4,0,0,1,3236.331,494.3Z" transform="translate(-3221.654 -486.165)"/></g><g transform="translate(25.952 34.476)"><path class="a" d="M3227.554,528.578a.718.718,0,0,1-.4-.124c-4.652-3.1-9.575-20.9-9.972-26.64a.648.648,0,1,1,1.292-.09,67.881,67.881,0,0,0,3.373,14.179c1.7,5.005,3.478,8.714,5.026,10.538,0-.061-.007-.113-.007-.159,0-.908.031-1.806.062-2.675.045-1.3.087-2.536.037-3.823-.047-1.167-.3-2.921-.573-4.777-.485-3.329-1.035-7.1-.649-9.234a.763.763,0,0,1,.461-.588c.465-.19.867.094,1.475.526a3.983,3.983,0,0,0,2,.945c1.721-.047,2.044-.518,2.9-1.774.241-.352.514-.751.859-1.2a.648.648,0,0,1,1.025.793c-.321.416-.583.8-.814,1.135-.9,1.319-1.557,2.272-3.91,2.337a4.712,4.712,0,0,1-2.813-1.182h0a46.287,46.287,0,0,0,.745,8.054c.275,1.891.536,3.677.585,4.912.053,1.335.008,2.649-.036,3.92-.03.857-.061,1.745-.061,2.63,0,.057.024.261.042.41.109.935.175,1.5-.289,1.783A.684.684,0,0,1,3227.554,528.578Z" transform="translate(-3217.178 -501.122)"/></g><g transform="translate(25.952 22.575)"><path class="a" d="M3222.9,496.55c-.279-.48-1.049-1.179-3.088-1.215a15.229,15.229,0,0,1-.806-3.687c-.148-1.274-.291-2.116-.4-2.727a3.331,3.331,0,0,1-.113-1.15,3.762,3.762,0,0,1,.693-.931c.361-.415.83-.954,1.458-1.755.107-.136.214-.273.326-.421a.005.005,0,0,0,.005-.005.153.153,0,0,1,.024-.036l.024-.024a.385.385,0,0,0,.047-.083.213.213,0,0,0,.024-.054.58.58,0,0,0,.048-.314.372.372,0,0,0-.012-.077.18.18,0,0,0-.018-.047c0-.012-.011-.03-.017-.048a.555.555,0,0,0-.083-.154.8.8,0,0,0-.1-.1.342.342,0,0,1-.047-.03c-.006,0-.006-.006-.011-.006v-.005c-.006-.006-.012-.006-.018-.012a.107.107,0,0,0-.024-.018.006.006,0,0,1-.006-.006c-.011,0-.018,0-.024-.005s-.011-.006-.024-.012l-.053-.018a.13.13,0,0,0-.06-.018h-.005a.48.48,0,0,0-.131-.018h-.059a.02.02,0,0,0-.018.006h-.019a.255.255,0,0,0-.059.012c-.006-.006-.006,0-.011,0a.44.44,0,0,0-.107.035.021.021,0,0,0-.017.006l-.006.006h-.011l-.006.005a.164.164,0,0,0-.072.054c-.006,0-.011.006-.017.012s-.006,0-.012.006a.7.7,0,0,0-.106.113.58.58,0,0,1-.059.071c-.765,1-1.317,1.624-1.719,2.086-.267.314-.474.558-.634.789v.005c-.48.682-.462,1.108-.243,2.365.1.593.243,1.411.385,2.649a16.991,16.991,0,0,0,.735,3.6c-.22.018-.439.047-.676.083-.012,0-.03.006-.042.006h-.005c-.006,0-.006,0-.012.006a.127.127,0,0,0-.047.006.107.107,0,0,0-.042.012.537.537,0,0,0-.119.054.493.493,0,0,0-.094.059,1.166,1.166,0,0,0-.083.083c-.017.024-.035.054-.054.077a.122.122,0,0,0-.035.059.463.463,0,0,0-.024.06.549.549,0,0,0-.03.1.578.578,0,0,0-.011.172c0,.018.006.035.006.048a.642.642,0,0,0,.735.545c.208-.03.409-.054.6-.077.16-.018.308-.03.451-.035a3.476,3.476,0,0,0,2.05,1.956,1.777,1.777,0,0,0,.521.077,1.564,1.564,0,0,0,1.257-.581A1.367,1.367,0,0,0,3222.9,496.55Zm-1.115.753c-.041.059-.171.125-.409.065a1.745,1.745,0,0,1-.847-.688c.77.107,1.15.35,1.25.522C3221.815,497.268,3221.8,497.285,3221.785,497.3Z" transform="translate(-3217.178 -483.575)"/></g><g transform="translate(13.198 22.574)"><path class="a" d="M3200.31,489.292q-.66,0-1.32-.033a.648.648,0,1,1,.065-1.295,23.256,23.256,0,0,0,15-4.255.648.648,0,1,1,.792,1.025A24.273,24.273,0,0,1,3200.31,489.292Z" transform="translate(-3198.374 -483.573)"/></g><g transform="translate(28.619)"><path class="a" d="M3241.087,452.607c-2.982-2.81-7-3.077-10.758-.729a.711.711,0,0,0-.332.669.724.724,0,0,0,.03.13c-2.6.7-8.595,2.347-7.694,10.456a1.556,1.556,0,0,0,.972,1.2,2.84,2.84,0,0,0-.332.3c-.971,1-.462,3.283.089,4.481.516,1.138,1.168,1.725,1.891,1.677a1.228,1.228,0,0,0,.243-.041c-.011.053-.018.113-.029.165-.03.131-.06.261-.089.391a6.231,6.231,0,0,1-.273.836,3.565,3.565,0,0,1-.474.842c-.368.456-.937.878-2.152.03a.389.389,0,0,1-.047-.03c-.005,0-.005-.006-.011-.006v-.005c-.006-.006-.012-.006-.018-.012a.12.12,0,0,0-.024-.018.006.006,0,0,1-.006-.006c-.011,0-.018,0-.023-.005s-.012-.006-.024-.012l-.053-.018a.129.129,0,0,0-.06-.018h-.005a.481.481,0,0,0-.131-.018h-.059a.02.02,0,0,0-.018.006h-.019a.255.255,0,0,0-.059.012c-.006-.006-.006,0-.011,0a.44.44,0,0,0-.107.035.022.022,0,0,0-.018.006l-.006.006h-.012l-.006.005a.164.164,0,0,0-.071.054c-.006,0-.011.006-.018.012s-.006,0-.012.006-.011.006-.017.012a.423.423,0,0,0-.113.118c-.012.018-.029.03-.035.054a.661.661,0,0,0,.184.854,3.527,3.527,0,0,0,.4.254h.006a.677.677,0,0,0,.124.077,3.469,3.469,0,0,0,.771.314,2.393,2.393,0,0,0,1.1.071,2.589,2.589,0,0,0,1.559-.978,4.5,4.5,0,0,0,.6-1.061c.611,3.064,2.01,5.174,4.108,6.152a12.2,12.2,0,0,0,4.5,1.286,2.073,2.073,0,0,0,.279.012c.208,0,.4-.012.593-.03h.005a4.62,4.62,0,0,0,1.269-.309.61.61,0,0,0,.1-.041c0-.005.006-.005.006-.005a.443.443,0,0,0,.078-.03,6.188,6.188,0,0,0,2.946-3.533c.16-.373.3-.764.438-1.173.273-.794.516-1.648.759-2.507a27.743,27.743,0,0,1,1.992-5.477A12.112,12.112,0,0,0,3241.087,452.607Zm-15.868,16.146a1.874,1.874,0,0,1-.355.728,3.54,3.54,0,0,1-.96-1.861,2.77,2.77,0,0,1,0-2.08c.244-.26.392-.32.487-.32a.2.2,0,0,1,.136.054,5.052,5.052,0,0,1,.818,3.064C3225.308,468.468,3225.273,468.61,3225.219,468.753Zm16.141-1.233a35.236,35.236,0,0,0-1.565,4.664c-.237.813-.463,1.607-.711,2.354-.137.415-.284.806-.433,1.179a5.026,5.026,0,0,1-2.3,2.863c-1.316.6-3.195.314-5.744-.878-2.021-.948-2.963-3.117-3.384-5.227a12.811,12.811,0,0,1-.2-1.3q-.036-.267-.054-.515c-.433-5.169,1.292-11.03,3.005-12.211a8.758,8.758,0,0,1,4.1-.711,17.524,17.524,0,0,1,4.778.622c1.512.439,2.5,1.049,2.8,1.731.385.9-.071,5.334-.51,6.734A.65.65,0,0,0,3241.36,467.52Zm1.63-3.995a10.354,10.354,0,0,0-.154-3.954c-.456-1.067-1.677-1.9-3.627-2.46-3.112-.907-8.145-.978-9.964.267-1.392.954-2.578,3.77-3.189,7.018a4.869,4.869,0,0,0-1.689-1,2.353,2.353,0,0,1-.747-.4c-.782-7.042,4.327-8.41,6.781-9.068a3.214,3.214,0,0,0,1.411-.569.708.708,0,0,0,.2-.67,1.183,1.183,0,0,0-.089-.213,6.921,6.921,0,0,1,8.274,1.078A10.8,10.8,0,0,1,3242.99,463.525Z" transform="translate(-3221.11 -450.29)"/></g></g></g><g transform="translate(0 20.276)"><path class="a" d="M3168.112,576.858c-.426-.245-.847-.49-1.268-.754a.24.24,0,0,1-.057-.031c-.608-.376-1.211-.759-1.807-1.161a50.643,50.643,0,0,1-5.529-4.274c-.156-.138-.314-.282-.47-.42a51.035,51.035,0,0,1,40.058-88.458c.091.01.182.023.273.034v-1.266a52.273,52.273,0,0,0-44.944,86.81c.358.4.722.8,1.092,1.18.094.106.195.207.3.307.188.195.376.4.571.584s.383.383.577.571c.245.244.5.483.754.722.195.182.389.357.583.533.213.195.427.389.646.578s.446.383.666.577c.251.213.509.427.772.633.232.195.471.383.715.571.364.283.728.565,1.092.835s.741.546,1.117.81c.434.307.866.6,1.312.9.326.213.652.427.985.633.189.119.383.245.578.358s.382.238.577.351a1.24,1.24,0,0,0,.169.107c.446.264.891.515,1.343.766-.031-.458-.062-.91-.087-1.349A1.03,1.03,0,0,1,3168.112,576.858Z" transform="translate(-3141.025 -480.185)"/><g transform="translate(10.31 15.107)"><path class="a" d="M3182.133,502.458v1.416c-14.113,3.724-24.681,18.334-24.681,35.751a39.576,39.576,0,0,0,10.4,27.117l.3.3a32.432,32.432,0,0,0,3.438,3.069c.373.293.747.568,1.126.836.3.212.557.387.824.562l.107.069v.131a.327.327,0,0,0,.006.075c.012.312.03.611.048.917l.029.524-.361-.237c-.284-.181-.563-.362-.847-.556-.036-.025-.083-.056-.13-.094-.095-.068-.22-.156-.344-.243-.1-.069-.208-.144-.315-.225l-.047-.031c-.207-.149-.414-.305-.616-.461-.285-.218-.558-.431-.83-.655-.237-.193-.468-.387-.705-.586l-.687-.612c-.155-.137-.309-.275-.451-.418-.166-.144-.326-.3-.486-.455l-.421-.425c-.13-.125-.255-.262-.385-.393-.142-.156-.267-.281-.39-.412-.16-.175-.32-.349-.474-.53-.125-.138-.25-.275-.368-.418-.083-.094-.173-.2-.268-.306l-.089-.113c-.065-.075-.13-.149-.189-.231-.231-.275-.463-.562-.688-.855a41.432,41.432,0,0,1-8.405-25.346C3156.225,521.441,3167.333,506.207,3182.133,502.458Z" transform="translate(-3156.225 -502.458)"/></g><g transform="translate(67.425 60.523)"><path class="a" d="M3266.747,569.419c-.095.409-.2.812-.308,1.221a43.037,43.037,0,0,1-25.629,28.255c-.125.053-.249.1-.374.148V597.7c.29-.112.575-.225.865-.349a41.538,41.538,0,0,0,23.816-26.714c.113-.409.22-.812.32-1.221Z" transform="translate(-3240.435 -569.419)"/></g><path class="a" d="M3276.706,556.885a52.124,52.124,0,0,1-15.043,36.666l-.035.035a31.371,31.371,0,0,1-7.652,5.649c-1.577.836-3.188,1.606-4.789,2.258a.006.006,0,0,0-.006.006c-4.072,1.666-8.1,2.59-11.463,2a.761.761,0,0,1-.113-.03.176.176,0,0,0,.053.006.646.646,0,0,0,.682-.61c.006-.119.006-.32,0-.581,3.84.712,9.91-1.754,14.166-3.852a32.133,32.133,0,0,0,9.507-7.071,50.948,50.948,0,0,0,12.56-25.036c.077-.4.148-.812.213-1.221a50.812,50.812,0,0,0,.664-8.221c0-.291-.011-.581-.018-.872h1.257C3276.695,556.3,3276.706,556.594,3276.706,556.885Z" transform="translate(-3172.099 -504.582)"/></g></g><rect class="a" width="27.514" height="1.218" transform="translate(3196.842 521.999)"/><path class="a" d="M3267.843,569.419c-.095.409-.2.812-.308,1.221h-23.691v-1.221Z" transform="translate(-54.343 -38.329)"/><path class="a" d="M3292.891,569.419v1.221h-.782c.078-.4.148-.812.213-1.221Z" transform="translate(-69.872 -38.329)"/></g></svg>