<svg xmlns="http://www.w3.org/2000/svg" width="286.394" height="270.934" viewBox="0 0 286.394 270.934"><defs><style>.a{fill:#fff;}</style></defs><g transform="translate(-3074.945 -450.29)"><path class="a" d="M3103.688,680.57v-3.3a10.737,10.737,0,0,0-4.038-8.739,17.773,17.773,0,0,0-20.668,0,10.74,10.74,0,0,0-4.037,8.739V695.68a10.722,10.722,0,0,0,4.037,8.73,17.778,17.778,0,0,0,20.668,0,10.72,10.72,0,0,0,4.038-8.73v-9.736H3089.4v5.427h7.8v4.309a5.774,5.774,0,0,1-2.263,4.928,9.262,9.262,0,0,1-5.645,1.687,8.406,8.406,0,0,1-5.41-1.687,5.993,5.993,0,0,1-2.088-4.928V677.267a5.934,5.934,0,0,1,2.158-4.842,8.07,8.07,0,0,1,5.34-1.774,8.8,8.8,0,0,1,5.6,1.8,5.805,5.805,0,0,1,2.307,4.816v3.3Z"/><path class="a" d="M3134.8,665.521h-6.861l-13.685,41.607h7.271l3.058-10.216h13.275l3.076,10.216h7.2Zm-8.617,25.964,5.016-16.823,5.068,16.823Z"/><path class="a" d="M3187.678,695.907q-1.114-6.843-5.785-8.617,6.8-2.11,6.8-9.552v-.83a10.49,10.49,0,0,0-3.251-8.11c-2.167-1.992-5.244-2.988-9.264-2.988h-15.642v41.318h6.842V690.192h6.266a8.888,8.888,0,0,1,5.069,1.179c1.136.778,1.905,2.482,2.307,5.069l1.591,10.688h6.842Zm-5.838-17.164q0,6-6.379,6.013h-8.084V671.237h8.084a6.444,6.444,0,0,1,4.789,1.634,6.018,6.018,0,0,1,1.59,4.4Z"/><path class="a" d="M3231.12,680.57v-3.3a10.715,10.715,0,0,0-4.038-8.739,17.759,17.759,0,0,0-20.659,0,10.739,10.739,0,0,0-4.037,8.739V695.68a10.722,10.722,0,0,0,3.626,8.38,15.044,15.044,0,0,0,9.4,3.6v5.13h1.835c2.176,0,3.251.812,3.251,2.42v.306q0,2.647-3.006,2.648a13.269,13.269,0,0,1-5.087-1.005l-.821,2.657a13.006,13.006,0,0,0,6,1.407,8.568,8.568,0,0,0,5.278-1.783,5.112,5.112,0,0,0,1.7-3.924v-.594q0-4.968-5.9-4.973h-.594v-2.289a15.045,15.045,0,0,0,9.412-3.6,10.693,10.693,0,0,0,3.627-8.38v-3.3h-6.494v3.3a5.774,5.774,0,0,1-2.263,4.928,9.253,9.253,0,0,1-5.636,1.687,8.4,8.4,0,0,1-5.41-1.687,5.941,5.941,0,0,1-2.088-4.928V677.267a5.909,5.909,0,0,1,2.158-4.842,8.071,8.071,0,0,1,5.34-1.774,8.818,8.818,0,0,1,5.6,1.8,5.8,5.8,0,0,1,2.3,4.816v3.3Z"/><path class="a" d="M3269.23,668.528a17.759,17.759,0,0,0-20.659,0,10.722,10.722,0,0,0-4.046,8.739V695.68a10.7,10.7,0,0,0,4.046,8.73,17.764,17.764,0,0,0,20.659,0,10.7,10.7,0,0,0,4.047-8.73V677.267A10.72,10.72,0,0,0,3269.23,668.528Zm-2.8,27.152a5.889,5.889,0,0,1-2.158,4.832,8.154,8.154,0,0,1-5.393,1.783,8.071,8.071,0,0,1-5.339-1.783,5.922,5.922,0,0,1-2.167-4.832V677.267a5.942,5.942,0,0,1,2.167-4.842,8.07,8.07,0,0,1,5.339-1.774,8.154,8.154,0,0,1,5.393,1.774,5.909,5.909,0,0,1,2.158,4.842Z"/><path class="a" d="M3311.912,668.528a17.774,17.774,0,0,0-20.668,0,10.711,10.711,0,0,0-4.037,8.739V695.68a10.694,10.694,0,0,0,4.037,8.73,17.778,17.778,0,0,0,20.668,0,10.722,10.722,0,0,0,4.037-8.73V677.267A10.74,10.74,0,0,0,3311.912,668.528ZM3309.1,695.68a5.889,5.889,0,0,1-2.159,4.832,8.965,8.965,0,0,1-10.731,0,5.919,5.919,0,0,1-2.168-4.832V677.267a5.939,5.939,0,0,1,2.168-4.842,9,9,0,0,1,10.731,0,5.909,5.909,0,0,1,2.159,4.842Z"/><path class="a" d="M3354.855,665.81v19.121c0,2.482.079,5.925.28,10.329l-17.1-29.45h-7.209v41.318h6.493V688.007c0-2.517-.1-5.995-.3-10.452l17.469,29.573h6.851V665.81Z"/><path class="a" d="M3168.192,613.547c3.692,3.322,7.43,6.81,10.687,10.086A77.2,77.2,0,0,1,3160.7,608.68h2c1.554,1.351,3.164,2.776,4.8,4.247C3167.729,613.131,3167.961,613.344,3168.192,613.547Z"/><path class="a" d="M3183.5,631.165a2.874,2.874,0,0,1-1.11.509,3.22,3.22,0,0,1-.583.027.122.122,0,0,0,.009.056,1.605,1.605,0,0,1-1.637-.722c-.028-.055-.056-.092-.074-.129,0-.01-.009-.01-.009-.019a3.106,3.106,0,0,1-.463-1.4c-.028-.222-.047-.416-.065-.583q-.111-1.027-.194-2.026c-.093-.99-.167-1.962-.223-2.906.213.148.417.3.621.444s.425.306.628.454c.26.185.519.379.76.573.009.2.027.389.046.583.083,1.027.185,2.082.305,3.156.019.185.037.37.065.564.009,0,.009.009.018.009a.417.417,0,0,0,.1.037.7.7,0,0,0,.657-.175,1.815,1.815,0,0,0,.713-1.611,4.667,4.667,0,0,0-1.906-2.563c-.019-.175-.038-.351-.047-.527-.046-.675-.092-1.342-.129-1.989.185.129.37.268.555.4,1.462,1.073,3.053,2.378,3.414,4.339A3.712,3.712,0,0,1,3183.5,631.165Z"/><path class="a" d="M3181.156,625.446c-.241-.194-.5-.388-.76-.573-.2-.148-.416-.306-.628-.454s-.408-.3-.621-.444c-.629-.444-1.286-.9-1.961-1.351,0-.009-.01-.027-.01-.037-.1-.314-.2-.62-.295-.925v-.009c-.186-.611-.37-1.212-.537-1.8l-.028-.083c.851.555,1.684,1.1,2.471,1.638.074.046.148.1.222.148v.009a.346.346,0,0,0,.083.046c.657.454,1.286.889,1.888,1.324.037.647.083,1.314.129,1.989C3181.118,625.095,3181.137,625.271,3181.156,625.446Z"/><path class="a" d="M3182.386,631.674a3.136,3.136,0,0,1-.574.083.122.122,0,0,1-.009-.056A3.22,3.22,0,0,0,3182.386,631.674Z"/><path class="a" d="M3238.69,625.095a.948.948,0,0,1-1.008.9.214.214,0,0,1-.075-.009h-.018a.972.972,0,0,1-.592-1.064.943.943,0,0,1,1.11-.777c.194.037.389.065.583.092C3238.7,624.623,3238.7,624.919,3238.69,625.095Z"/><path class="a" d="M3182.149,621.42a.955.955,0,0,1-.95-.858c-3.012-29.509,2.132-42.937,11.471-67.313l.4-1.044a.956.956,0,0,1,1.785.683l-.4,1.045c-9.235,24.1-14.321,37.378-11.355,66.435a.955.955,0,0,1-.853,1.047A.824.824,0,0,1,3182.149,621.42Z"/><path class="a" d="M3214.787,558.774a.951.951,0,0,1-.158-.014c-1.015-.169-2.135-.335-3.32-.511-5.973-.887-13.406-1.991-17.869-4.9a.955.955,0,0,1,1.044-1.6c4.114,2.683,11.317,3.753,17.106,4.612,1.2.178,2.328.346,3.353.517a.956.956,0,0,1-.156,1.9Z"/><path class="a" d="M3216.429,582.51a1.009,1.009,0,0,0,.158-.56.937.937,0,0,0-.219-.568c-.489-11.413-.734-27.222-.577-37.918.018-.656.027-1.294.035-1.9.009-.105.009-.193.009-.289a.953.953,0,0,0-1.905-.061l-.009.21-.1,1.9-.62,13.283-.079,1.914-1.1,23.5a.977.977,0,0,0,.279.726.937.937,0,0,0,.709.279l1.52-.052c.043.961.087,1.887.148,2.779a.316.316,0,0,0,.009.1.548.548,0,0,0,.017.122.932.932,0,0,0,.656.7.253.253,0,0,0,.087.018,1.082,1.082,0,0,0,.184.017h.052a.956.956,0,0,0,.9-1.005c-.009-.227-.027-.445-.035-.681C3216.5,584.214,3216.464,583.384,3216.429,582.51Zm-2.447-1.434.254-5.523c.061,1.906.139,3.758.209,5.515Z"/><path class="a" d="M3232.664,589.181a62.42,62.42,0,0,1-17.3-2.513.955.955,0,0,1,.533-1.835,58.6,58.6,0,0,0,22.559,2.122.955.955,0,0,1,.211,1.9A54.262,54.262,0,0,1,3232.664,589.181Z"/><path class="a" d="M3238.561,588.825a.955.955,0,0,1-.953-.9l-.091-1.71c-.66-12.356-1.564-29.28-.957-40.822a.965.965,0,0,1,1-.9.955.955,0,0,1,.9,1c-.6,11.441.336,29,.957,40.621l.091,1.709a.955.955,0,0,1-.9,1.005Z"/><path class="a" d="M3241.794,561.641a17.754,17.754,0,0,1-2.806-.283c-.446-.066-.967-.143-1.6-.231a.955.955,0,0,1,.26-1.893c.645.089,1.173.167,1.624.235a15.282,15.282,0,0,0,5.4.051.955.955,0,0,1,.2,1.9A30.387,30.387,0,0,1,3241.794,561.641Z"/><path class="a" d="M3244.77,561.425a.956.956,0,1,1,0-1.911c5.373,0,14.108-5.868,15.355-8.878.145-.351.16-.589.043-.706-.817-.737-6.467.3-8.879.741-3.95.724-5.013.919-5.505-.017a1.154,1.154,0,0,1,.3-1.4c.689-.689,1.967-.839,3.585-1.03a12.826,12.826,0,0,0,3.113-.618c-1.3-.13-3.555-.18-4.925-.211-1.116-.025-2.079-.046-2.734-.088-1.2-.025-2.211-.037-3.04-.047-3.518-.043-4.152-.05-5.246-1.144a.955.955,0,0,1-.28-.666c-.776-1.2-9.091-1.5-14.071-1.681-10.517-.381-16.487-.736-16.884-3.608-.426-3.087-.183-7.346.1-12.277.679-11.906,1.524-26.725-6.13-35.7a.955.955,0,1,1,1.453-1.24c8.153,9.558,7.283,24.8,6.584,37.048-.275,4.831-.513,9-.112,11.907,0,.007.287.776,4.37,1.3,2.943.378,6.881.521,10.69.659,9.9.358,15.335.674,15.869,3.125.382.3.876.331,3.682.364.834.01,1.85.022,3.1.05.656.041,1.646.063,2.694.086,5.8.129,7.32.219,7.32,1.578A2.339,2.339,0,0,1,3255,548.1c3.284-.482,5.53-.513,6.521.478a2.386,2.386,0,0,1,.371,2.789c-.93,2.244-4.192,4.826-6.935,6.494C3251.232,560.126,3247.519,561.425,3244.77,561.425Z"/><path class="a" d="M3191.191,549.535a.956.956,0,0,1-.9-.634c-2.215-6.2-2.506-14.985-.89-26.844a26.567,26.567,0,0,1,2.48-7.464,33.332,33.332,0,0,0,1.93-4.969,39.27,39.27,0,0,0,.528-5.143c.5-7.354,1.094-13.071,3.633-14.227a2.729,2.729,0,0,1,2.9.548.955.955,0,1,1-1.152,1.524c-.29-.22-.691-.456-.959-.333-1.7.776-2.234,8.48-2.518,12.619a37.224,37.224,0,0,1-.59,5.514,35.349,35.349,0,0,1-2.032,5.252,24.719,24.719,0,0,0-2.329,6.937c-1.574,11.549-1.314,20.035.8,25.944a.956.956,0,0,1-.9,1.276Z"/><path class="a" d="M3204.352,569.272c-.666.657-1.286,1.277-1.739,1.786-1.24,1.388-2.47,2.739-3.674,4.043-1.5,1.638-2.96,3.239-4.358,4.84-.647.74-1.276,1.489-1.9,2.239-4.645,5.635-8.412,11.668-10.391,20.254-.01.01-.01.01-.01.019a63.18,63.18,0,0,0-1.48,13.657v.019c-.028,2.072.028,4.265.157,6.588a1.53,1.53,0,0,0,.019.213c.037.647.083,1.314.129,1.989.009.176.028.352.047.527-.241-.194-.5-.388-.76-.573-.2-.148-.416-.306-.628-.454s-.408-.3-.621-.444a.208.208,0,0,1-.009-.074.461.461,0,0,0-.009-.111c-.046-.759-.083-1.5-.12-2.23v-.009a73.732,73.732,0,0,1,1.36-19.015c0-.009,0-.009.009-.018a48.56,48.56,0,0,1,2.378-7.773l.009-.009c3.47-8.587,8.93-14.546,14.768-20.921,1.194-1.3,2.424-2.646,3.646-4.025.5-.555,1.147-1.2,1.832-1.878,2.85-2.822,6.755-6.681,5.2-9.79a3.194,3.194,0,0,0-.222-.379,7.248,7.248,0,0,0-2.5-2.369h-.009s-.01,0-.01-.009a33.53,33.53,0,0,0-7.273-2.878c-2.822-.87-5.477-1.693-7.383-3.026,0-.009-.01-.009-.01-.009a1.467,1.467,0,0,1-.157-.1.954.954,0,0,1,1.119-1.545c.074.056.149.1.223.148a27.378,27.378,0,0,0,6.773,2.711c4.006,1.24,8.133,2.526,10.335,5.321a7.608,7.608,0,0,1,.814,1.277,4.336,4.336,0,0,1,.324.832C3211.5,562.193,3207.239,566.413,3204.352,569.272Z"/><path class="a" d="M3182.149,621.421a.956.956,0,0,1-.875-1.337c2.194-5.043,4.513-6.854,9.137-10.156a.955.955,0,1,1,1.11,1.555c-4.448,3.177-6.5,4.775-8.5,9.363A.956.956,0,0,1,3182.149,621.421Z"/><path class="a" d="M3234.915,632.729c-.055.879-.092,4.968-.13,8.568-.018,2.822-.046,5.265-.074,5.959a.941.941,0,0,1-.388.731,9.906,9.906,0,0,1-4.775,1.388,11.08,11.08,0,0,0-3.3.712,15.027,15.027,0,0,1-6.524,1.638,11.415,11.415,0,0,1-1.258-.065,11.1,11.1,0,0,0-1.36-.046,7.194,7.194,0,0,1-2.609-.3,14.039,14.039,0,0,1-2.23-1.074,12.8,12.8,0,0,0-1.86-.925c-2.832-.953-5.931-.7-9.207-.435-3.59.287-7.31.592-10.7-.833a.949.949,0,0,1-.583-.879c-.009-5.339.167-11.473.444-17.95q.042-.972.083-1.943c.287-6.45.657-13.186,1.018-19.83.509-9.16.99-17.867,1.222-25.269.018-.657.037-1.3.055-1.934a.95.95,0,0,1,1.841-.3.913.913,0,0,1,.065.36c-.2,7.828-.722,17.266-1.277,27.26-.37,6.847-.758,13.814-1.054,20.43-.019.648-.047,1.295-.074,1.934-.25,5.968-.408,11.612-.417,16.59,2.813.981,5.931.731,9.216.463,3.331-.268,6.764-.546,9.975.537a14.628,14.628,0,0,1,2.183,1.055,12.248,12.248,0,0,0,1.888.934,5.8,5.8,0,0,0,2,.2,11.917,11.917,0,0,1,1.592.055,12.485,12.485,0,0,0,6.745-1.4,12.615,12.615,0,0,1,3.9-.888,10.947,10.947,0,0,0,3.5-.8c.028-1.046.047-3.174.065-5.4.037-3.442.065-6.986.1-8.318h.009c0-.139,0-.25.009-.343a.981.981,0,0,1,1.018-.9.982.982,0,0,1,.9,1.009Z"/><path class="a" d="M3215.66,588.907a.943.943,0,0,0-.979.9c-.008.192-.035.393-.043.6a5.67,5.67,0,0,1-.289.891c-.55,1.416-1.564,4.046-2.656,13.231a108.711,108.711,0,0,0,.087,26.75c.053.35.087.682.131,1.014.026.244.07.5.105.734.044.384.1.76.149,1.145a65.026,65.026,0,0,1,.646,12.977,1.043,1.043,0,0,0,.044.341c-.017.3-.026.585-.044.865-.017.454-.052.865-.07,1.267a.955.955,0,0,0,.892,1.005h.061a.948.948,0,0,0,.952-.891,2.908,2.908,0,0,0,.027-.4c.2-3.426.375-8.757.55-15,.018-.612.035-1.233.044-1.853.1-3.635.2-7.524.3-11.492.3-11.946.594-24.286.97-30.368a3.617,3.617,0,0,0,.053-.778A.966.966,0,0,0,3215.66,588.907Zm-2.071,15.861c.21-1.827.419-3.391.638-4.71-.2,6.1-.393,13.562-.577,20.894-.061,2.779-.139,5.532-.2,8.189A107.215,107.215,0,0,1,3213.589,604.768Z"/><path class="a" d="M3238.69,625.095a.948.948,0,0,1-1.008.9.214.214,0,0,1-.075-.009h-.018a.959.959,0,0,1-.805-1c.037-.583-.018-2.091-.111-4.071-.009-.269-.028-.537-.037-.824-.213-4-.564-9.429-.8-12.973-.38,9.152-.74,19.376-.842,23.531-.028.99-.037,1.637-.028,1.841v.055a.674.674,0,0,1-.055.278v.009a.965.965,0,0,1-.87.648H3234a.945.945,0,0,1-.861-.546,1,1,0,0,1-.092-.37v-.176c0-.259,0-.712.019-1.323.083-3.572.407-12.565.721-20.551.592-14.851.824-19.172,1.037-20.56v-.083h.009c.083-.491.157-.564.249-.666a.836.836,0,0,1,.093-.084h.01a.963.963,0,0,1,1.082-.055h.009a.586.586,0,0,1,.176.129.953.953,0,0,1,.278.676c0,2.48.462,9.234.915,15.767.186,2.776.408,6.246.6,9.484.111,1.9.213,3.711.3,5.265v.009c.083,1.629.139,2.971.148,3.84C3238.7,624.623,3238.7,624.919,3238.69,625.095Z"/><path class="a" d="M3237.514,621.421a.936.936,0,0,1-.293-.047.955.955,0,0,1-.616-1.2c.472-1.465.922-2.841,1.349-4.147,3.917-11.983,5.882-18,5.86-33.292-.048-1.9-.241-4.017-.446-6.252-.516-5.635-1.05-11.461.5-16.1a.956.956,0,0,1,1.813.6c-1.419,4.256-.9,9.88-.405,15.319.207,2.268.4,4.41.454,6.4.022,15.623-1.975,21.735-5.955,33.911-.427,1.3-.875,2.677-1.347,4.139A.955.955,0,0,1,3237.514,621.421Z"/><path class="a" d="M3248.274,547.308a.945.945,0,0,1-.4-.09.955.955,0,0,1-.463-1.269,82.051,82.051,0,0,0,3.826-10.974c.622-2.072,1.265-4.214,2.041-6.608.844-2.878,2-7.088,3.018-11.1-.927,2.9-2.592,8.038-4.344,13.069-5.228,15.01-6.222,14.915-7.185,14.826a20.807,20.807,0,0,1-9.873-3.1.955.955,0,0,1,1.007-1.624,18.576,18.576,0,0,0,8.742,2.792c1.587-1.867,6.572-16.081,10.581-28.907l.1-.326c2.929-9.47,3.187-9.47,4.044-9.47a1.083,1.083,0,0,1,.872.442c.374.5.839,1.121-1.8,11.618-1.287,5.115-2.8,10.522-3.337,12.34-.777,2.4-1.417,4.531-2.036,6.593a83.34,83.34,0,0,1-3.924,11.232A.955.955,0,0,1,3248.274,547.308Z"/><path class="a" d="M3259.3,504c.008,0,.008-.009.008-.009s0-.009-.008-.009a.936.936,0,0,0-.533-.795c-2.534-1.215-5.6-2.255-8.355-2.019a6.679,6.679,0,0,0-4.806,2.5c-.647.813-.009,1.809,1.153,3.6a12.041,12.041,0,0,1,1.372,2.5c-1.538,10.033-6.606,18.859-11.5,27.388-.673,1.2-1.372,2.368-2.027,3.566a.008.008,0,0,0-.009.008c-.009.009-.009.018-.018.027s-.008.017-.017.026a1.213,1.213,0,0,0-.079.227.55.55,0,0,0-.044.245.524.524,0,0,0,.018.166.285.285,0,0,0,.017.079,1.051,1.051,0,0,0,.088.227.8.8,0,0,0,.079.105.731.731,0,0,0,.078.1,1.487,1.487,0,0,0,.175.14c.009.008.017.008.026.017s.009.009.018.009a.952.952,0,0,0,.454.113.971.971,0,0,0,.839-.48c.148-.271.306-.542.463-.813q.786-1.4,1.6-2.8c4.99-8.7,10.138-17.688,11.737-28.087.139-.909-.542-2.028-1.669-3.784-.332-.525-.8-1.25-1.005-1.669,2.018-2.168,5.584-2.054,10.591.34a.844.844,0,0,0,.559.079h.009a.932.932,0,0,0,.664-.446.342.342,0,0,0,.044-.078.925.925,0,0,0,.087-.394v-.017a.056.056,0,0,1-.008-.035c.008,0,.008-.009.008-.009A.008.008,0,0,0,3259.3,504Z"/><path class="a" d="M3258.36,504.888a.947.947,0,0,1-.355-.069c-7.7-3.09-13.067-6.711-15.961-10.763a.955.955,0,0,1,1.555-1.11c2.678,3.75,7.764,7.148,15.118,10.1a.955.955,0,0,1-.357,1.842Z"/><path class="a" d="M3244.106,493.852a1.526,1.526,0,0,0-.184-.157c-.052-.035-.1-.078-.148-.105a1,1,0,0,0-.2-.673.671.671,0,0,0-.158-.157.912.912,0,0,0-.1-.061c-.008-.009-.008-.018-.017-.018a.175.175,0,0,0-.053-.034c-.008,0-.017-.009-.026-.009a.725.725,0,0,0-.183-.061.97.97,0,0,0-.219-.027.9.9,0,0,0-.218.027c-.018.008-.044.008-.062.017a.371.371,0,0,0-.139.053h-.009a.51.51,0,0,0-.158.1c-.052.044-.1.088-.139.131-.009.009-.018.009-.018.018l-.008.009c-.4.5-.778.97-1.128,1.424a38.178,38.178,0,0,0-2.665,3.889,1.367,1.367,0,0,1-.175.122c-1.477.892-2.718.21-4.78-1.546a25.9,25.9,0,0,1-5.226-6.712c-1.093-1.809-1.923-3.2-3.041-3.714a2.262,2.262,0,0,0-.682-.192,2.321,2.321,0,0,0-.944.087,3.613,3.613,0,0,0-1.45.961c-.568.56-.577,1.145,1.511,5.471,1,2.054,2.15,4.265,2.43,4.737,2.8,4.788,5,7.008,6.965,6.938a2.792,2.792,0,0,0,2.045-1.1c.157,1.337.367,3.347.629,6.013.035.3.07.611.1.926l.1.979.166,1.634c.463,4.684-1.223,12.558-2.368,17.854v.052a.594.594,0,0,0-.044.114c-1.215,5.6-1.433,6.606-.428,7.1a1.606,1.606,0,0,0,.288.114,1.562,1.562,0,0,0,.446.061,1.747,1.747,0,0,0,.839-.218c4.09-2.237,7.664-28.6,8.1-31.967,0-.009.009-.018.009-.035.017-.193.035-.3.035-.324a.944.944,0,0,0-.848-1.04c-.017,0-.026,0-.035-.008h-.026a.937.937,0,0,0-.9.585.066.066,0,0,0-.018.035.743.743,0,0,0-.07.236c-.07.664-.244,2.019-.515,3.828v.017c-.481,3.26-1.258,8-2.194,12.672-1.6,7.97-2.84,11.509-3.6,13.082.21-1.066.5-2.447.778-3.732,1.249-5.741,2.954-13.589,2.447-18.614l-.167-1.695v-.009l-.1-.909c-.035-.349-.061-.672-.1-1v-.009c-.289-3.032-.507-5.094-.665-6.379a9.284,9.284,0,0,0-.384-2.019,3.987,3.987,0,0,0,.716.018,2.726,2.726,0,0,0,.018,2.246,1.81,1.81,0,0,0,1.958.856c2.158-.262,5.557-3.041,6.309-5.776a2.688,2.688,0,0,0,.061-.263A3.777,3.777,0,0,0,3244.106,493.852Zm-10.024,7.14c-.288.577-.717,1.442-1.258,1.468-.42.027-1.984-.375-5.253-6a79.443,79.443,0,0,1-3.923-8.162.868.868,0,0,1,.489-.219c.559.07,1.494,1.617,2.325,3a27.272,27.272,0,0,0,5.619,7.174,13.4,13.4,0,0,0,2.595,1.853A2.848,2.848,0,0,0,3234.082,500.992Zm9.211-2.84c-1.049,2.124-3.644,3.7-4.483,3.714a6.044,6.044,0,0,1,1-2.5,14.825,14.825,0,0,0,1.477-1.984,10.648,10.648,0,0,1,1.6-2.071C3243.468,495.793,3244.053,496.614,3243.293,498.152Z"/><path class="a" d="M3232.475,541.6a1.059,1.059,0,0,1-.591-.183c-6.858-4.572-14.118-30.812-14.7-39.277a.955.955,0,1,1,1.905-.132c.321,4.631,2.365,13.228,4.972,20.905,2.506,7.38,5.128,12.847,7.411,15.537-.007-.09-.011-.166-.011-.234,0-1.338.046-2.663.091-3.944.066-1.923.129-3.739.054-5.636-.069-1.72-.446-4.306-.845-7.043-.715-4.908-1.526-10.472-.957-13.615a1.127,1.127,0,0,1,.68-.867c.686-.28,1.278.139,2.175.775.819.58,2.057,1.458,2.949,1.393,2.538-.07,3.013-.763,4.282-2.616.356-.519.758-1.107,1.266-1.764a.955.955,0,0,1,1.511,1.169c-.473.613-.86,1.176-1.2,1.674-1.332,1.945-2.3,3.35-5.765,3.445-1.542.116-3.045-.961-4.148-1.743h0c-.194,3,.488,7.681,1.1,11.874.406,2.788.79,5.421.862,7.242.079,1.968.012,3.905-.053,5.779-.044,1.264-.089,2.572-.089,3.877,0,.084.035.385.061.6.161,1.378.258,2.211-.426,2.629A1.007,1.007,0,0,1,3232.475,541.6Z"/><path class="a" d="M3225.614,502.7c-.411-.708-1.547-1.739-4.553-1.791a22.412,22.412,0,0,1-1.189-5.436c-.218-1.879-.428-3.12-.585-4.02a4.907,4.907,0,0,1-.166-1.7,5.55,5.55,0,0,1,1.022-1.372c.533-.612,1.224-1.407,2.15-2.587.157-.2.315-.4.481-.621a.008.008,0,0,0,.008-.008.207.207,0,0,1,.035-.053l.035-.035a.547.547,0,0,0,.07-.122.3.3,0,0,0,.035-.079.854.854,0,0,0,.07-.463.569.569,0,0,0-.018-.113.281.281,0,0,0-.026-.07c-.008-.018-.017-.044-.026-.07a.809.809,0,0,0-.122-.227,1.164,1.164,0,0,0-.149-.149.531.531,0,0,1-.07-.044c-.008,0-.008-.009-.017-.009v-.008c-.009-.009-.018-.009-.026-.018a.162.162,0,0,0-.035-.026.009.009,0,0,1-.009-.009c-.017,0-.026,0-.035-.008s-.017-.009-.035-.018l-.078-.026a.192.192,0,0,0-.088-.026h-.008a.713.713,0,0,0-.193-.027H3222a.03.03,0,0,0-.026.009h-.027a.374.374,0,0,0-.087.018c-.009-.009-.009,0-.017,0a.646.646,0,0,0-.158.052.032.032,0,0,0-.026.009l-.009.009h-.017l-.009.008a.241.241,0,0,0-.1.079c-.009,0-.017.009-.026.017s-.009,0-.018.009a1,1,0,0,0-.157.166.89.89,0,0,1-.087.105c-1.128,1.468-1.941,2.395-2.535,3.076-.393.463-.7.822-.935,1.163v.008c-.707,1.005-.681,1.634-.358,3.487.149.874.358,2.08.568,3.906a25.074,25.074,0,0,0,1.084,5.3c-.324.026-.647.07-1,.122-.018,0-.044.009-.062.009h-.008c-.009,0-.009,0-.018.009a.19.19,0,0,0-.07.009.16.16,0,0,0-.061.017.808.808,0,0,0-.175.079.723.723,0,0,0-.139.087c-.044.044-.088.079-.123.122s-.052.079-.079.114a.179.179,0,0,0-.052.087.718.718,0,0,0-.035.088.815.815,0,0,0-.044.148.842.842,0,0,0-.017.254c0,.026.009.052.009.07a.946.946,0,0,0,1.083.8c.306-.044.6-.079.891-.114.236-.026.455-.044.665-.052a5.126,5.126,0,0,0,3.023,2.884,2.627,2.627,0,0,0,.769.113,2.3,2.3,0,0,0,1.853-.856A2.015,2.015,0,0,0,3225.614,502.7Zm-1.643,1.11c-.061.087-.253.184-.6.1a2.568,2.568,0,0,1-1.249-1.014c1.135.158,1.7.516,1.843.769C3224.015,503.763,3223.988,503.789,3223.971,503.815Z"/><path class="a" d="M3201.227,492q-.972,0-1.946-.048a.956.956,0,0,1,.1-1.909c8.23.411,16.5-1.934,22.116-6.274a.955.955,0,1,1,1.168,1.512C3217.137,489.55,3209.242,492,3201.227,492Z"/><path class="a" d="M3250.564,453.706c-4.4-4.143-10.321-4.536-15.861-1.075a1.047,1.047,0,0,0-.49.987,1.007,1.007,0,0,0,.044.192c-3.836,1.032-12.672,3.461-11.344,15.416a2.293,2.293,0,0,0,1.434,1.774,4.2,4.2,0,0,0-.49.437c-1.433,1.477-.681,4.841.131,6.607.761,1.678,1.722,2.543,2.788,2.473a1.816,1.816,0,0,0,.358-.061c-.017.078-.026.166-.043.244-.044.193-.088.385-.131.577a9.323,9.323,0,0,1-.4,1.232,5.257,5.257,0,0,1-.7,1.241c-.542.673-1.381,1.294-3.173.044a.531.531,0,0,1-.07-.044c-.008,0-.008-.009-.017-.009v-.008c-.009-.009-.018-.009-.026-.018a.162.162,0,0,0-.035-.026.009.009,0,0,1-.009-.009c-.017,0-.026,0-.035-.008s-.017-.009-.035-.018l-.078-.026a.192.192,0,0,0-.088-.026h-.008a.713.713,0,0,0-.193-.027H3222a.03.03,0,0,0-.026.009h-.027a.374.374,0,0,0-.087.018c-.009-.009-.009,0-.017,0a.646.646,0,0,0-.158.052.032.032,0,0,0-.026.009l-.009.009h-.017l-.009.008a.241.241,0,0,0-.1.079c-.009,0-.017.009-.026.017s-.009,0-.018.009-.017.009-.026.018a.621.621,0,0,0-.166.174c-.017.027-.043.044-.052.079a.974.974,0,0,0,.271,1.259,5.2,5.2,0,0,0,.594.375h.009a1,1,0,0,0,.183.114,5.106,5.106,0,0,0,1.136.463,3.53,3.53,0,0,0,1.626.105,3.815,3.815,0,0,0,2.3-1.442,6.634,6.634,0,0,0,.891-1.564c.9,4.518,2.963,7.629,6.057,9.071a17.991,17.991,0,0,0,6.641,1.9,3.074,3.074,0,0,0,.411.018c.306,0,.585-.018.874-.044h.008a6.818,6.818,0,0,0,1.871-.455.924.924,0,0,0,.148-.061c0-.008.009-.008.009-.008a.661.661,0,0,0,.114-.044c2.079-.953,3.364-2.858,4.343-5.209.236-.55.445-1.127.646-1.73.4-1.171.761-2.429,1.119-3.7a40.912,40.912,0,0,1,2.936-8.075A17.857,17.857,0,0,0,3250.564,453.706Zm-23.4,23.8a2.761,2.761,0,0,1-.524,1.074,5.22,5.22,0,0,1-1.416-2.744c-.419-1.573-.3-2.752,0-3.067.359-.384.577-.472.717-.472a.287.287,0,0,1,.2.079c.682.6,1.127,2.438,1.206,4.518C3227.3,477.091,3227.248,477.3,3227.169,477.511Zm23.8-1.818a52,52,0,0,0-2.307,6.877c-.35,1.2-.682,2.369-1.049,3.47-.2.612-.419,1.188-.638,1.739-.821,1.975-1.853,3.522-3.391,4.221-1.94.891-4.71.463-8.468-1.294-2.98-1.4-4.369-4.6-4.99-7.707a18.926,18.926,0,0,1-.288-1.923q-.052-.393-.079-.76c-.638-7.621,1.9-16.263,4.431-18,.961-.655,3.321-1.048,6.038-1.048a25.836,25.836,0,0,1,7.044.917c2.229.647,3.688,1.547,4.125,2.552.568,1.328-.1,7.865-.752,9.928A.959.959,0,0,0,3250.966,475.693Zm2.4-5.89c.218-2.36.236-4.754-.227-5.829-.673-1.573-2.473-2.8-5.348-3.627-4.588-1.337-12.008-1.442-14.691.393-2.053,1.407-3.8,5.558-4.7,10.347a7.186,7.186,0,0,0-2.491-1.476,3.464,3.464,0,0,1-1.1-.6c-1.154-10.382,6.379-12.4,10-13.37a4.738,4.738,0,0,0,2.08-.839,1.044,1.044,0,0,0,.289-.988,1.733,1.733,0,0,0-.131-.314c4.4-2.185,8.782-1.643,12.2,1.59A15.928,15.928,0,0,1,3253.369,469.8Z"/><path class="a" d="M3180.961,622.717c-.629-.361-1.249-.722-1.869-1.111a.346.346,0,0,1-.083-.046c-.9-.555-1.786-1.119-2.665-1.712a74.67,74.67,0,0,1-8.152-6.3c-.231-.2-.463-.416-.694-.62a75.244,75.244,0,0,1,59.061-130.42c.134.015.268.034.4.05V480.69A77.07,77.07,0,0,0,3160.7,608.68c.528.592,1.064,1.175,1.61,1.74.139.157.287.3.435.453.278.287.555.583.842.861s.564.564.851.842c.361.36.731.712,1.111,1.064.287.268.573.527.86.786.315.287.629.574.953.852s.657.564.981.851c.37.314.75.629,1.138.934.343.287.694.565,1.055.842.537.417,1.073.833,1.61,1.231s1.092.8,1.647,1.194c.639.453,1.277.888,1.934,1.323.481.314.962.629,1.452.934.278.176.565.361.852.528s.564.351.851.518a1.8,1.8,0,0,0,.25.157c.657.389,1.314.759,1.98,1.129-.046-.675-.092-1.342-.129-1.989A1.53,1.53,0,0,1,3180.961,622.717Z"/><path class="a" d="M3194.423,502.458v2.088c-20.808,5.491-36.389,27.031-36.389,52.711,0,15.157,5.593,29.735,15.328,39.981l.437.442a47.859,47.859,0,0,0,5.069,4.525c.55.432,1.1.837,1.66,1.232.437.313.821.57,1.215.828l.157.1v.193a.461.461,0,0,0,.009.111c.017.46.043.9.07,1.352l.043.772-.533-.349c-.419-.267-.83-.534-1.249-.819-.053-.037-.122-.083-.192-.138-.14-.1-.324-.23-.507-.358-.149-.1-.306-.212-.464-.332l-.07-.046c-.305-.22-.611-.45-.908-.68-.42-.322-.822-.635-1.224-.966-.349-.285-.69-.57-1.04-.864-.332-.295-.673-.6-1.013-.9-.228-.2-.455-.405-.665-.616-.244-.212-.48-.442-.716-.671l-.621-.626c-.192-.184-.376-.386-.568-.579-.209-.23-.393-.414-.576-.607-.236-.258-.472-.515-.7-.782-.184-.2-.368-.4-.542-.616-.123-.138-.254-.3-.394-.451l-.131-.166c-.1-.11-.192-.22-.279-.34-.341-.4-.682-.828-1.014-1.26a61.086,61.086,0,0,1-12.392-37.369C3156.225,530.446,3172.6,507.985,3194.423,502.458Z"/><path class="a" d="M3279.228,569.419c-.14.6-.289,1.2-.455,1.8a63.45,63.45,0,0,1-37.787,41.659c-.184.078-.367.148-.551.218v-1.975c.428-.166.848-.332,1.276-.515a61.243,61.243,0,0,0,35.113-39.387c.167-.6.324-1.2.472-1.8Z"/><path class="a" d="M3295.255,557.3a76.851,76.851,0,0,1-22.18,54.059l-.052.052a46.244,46.244,0,0,1-11.282,8.329c-2.325,1.232-4.7,2.368-7.061,3.329a.009.009,0,0,0-.009.009c-6,2.456-11.937,3.819-16.9,2.954a1.1,1.1,0,0,1-.166-.044.259.259,0,0,0,.078.009.952.952,0,0,0,1.006-.9c.008-.175.008-.472,0-.857,5.662,1.049,14.611-2.586,20.886-5.68a47.372,47.372,0,0,0,14.017-10.426,75.118,75.118,0,0,0,18.518-36.913c.114-.594.218-1.2.314-1.8a74.858,74.858,0,0,0,.979-12.121c0-.429-.017-.857-.026-1.285h1.853C3295.238,556.441,3295.255,556.869,3295.255,557.3Z"/><rect class="a" width="40.566" height="1.796" transform="translate(3254.667 556.016)"/><path class="a" d="M3279.228,569.419c-.14.6-.289,1.2-.455,1.8h-34.929v-1.8Z"/><path class="a" d="M3293.262,569.419v1.8h-1.153c.114-.594.218-1.2.314-1.8Z"/></g></svg>