<svg xmlns="http://www.w3.org/2000/svg" width="135.248" height="124.768" viewBox="0 0 135.248 124.768"><defs><style>.a{fill:#fff;}</style></defs><g transform="translate(1658.561 423.03)"><path class="a" d="M107.147,67.657a32.445,32.445,0,0,0-8.661,1.178,41.681,41.681,0,0,0-57.85.98,3.711,3.711,0,0,0,5.248,5.247A34.247,34.247,0,0,1,90.8,72.077,32.774,32.774,0,0,0,78.673,84.469a17.1,17.1,0,1,0-.76,30,32.537,32.537,0,1,0,29.234-46.815Zm-31.738,39.7a9.7,9.7,0,1,1,.4-15.913,32.31,32.31,0,0,0-.4,15.913Zm31.738,17.958a25.12,25.12,0,1,1,25.12-25.12A25.148,25.148,0,0,1,107.147,125.316Zm4.235-67.368A3.711,3.711,0,0,0,116.63,52.7a65.912,65.912,0,0,0-93.1,0,3.71,3.71,0,0,0,5.247,5.247A58.479,58.479,0,0,1,111.381,57.948Zm18-18a3.711,3.711,0,1,0,5.248-5.247,91.3,91.3,0,0,0-129.1,0,3.71,3.71,0,0,0,5.247,5.247,83.878,83.878,0,0,1,118.6,0ZM106.387,82.483a3.71,3.71,0,0,0-3.711,3.711V101.53a3.711,3.711,0,1,0,7.421,0V86.193A3.71,3.71,0,0,0,106.387,82.483Zm0,26.469a3.71,3.71,0,0,0-3.711,3.711v.248a3.711,3.711,0,1,0,7.421,0v-.248A3.71,3.71,0,0,0,106.387,108.952Z" transform="translate(-1663 -431)"/></g></svg>