<svg xmlns="http://www.w3.org/2000/svg" width="81.806" height="69.385" viewBox="0 0 81.806 69.385"><defs><style>.a{fill:#fff;}</style></defs><g transform="translate(0 0)"><g transform="translate(0 26.731)"><path class="a" d="M38.676,37.908l-.6-9.079c-.114-1.317-1.215-1.295-2.558-1.295H12.887c-1.342,0-2.443-.024-2.554,1.295l-.6,9.079Zm6.41,9.3a3.366,3.366,0,1,0-3.365,3.378A3.368,3.368,0,0,0,45.085,47.212Zm-11.1,4.638,0-6.059a1.523,1.523,0,0,0-1.518-1.522L16.43,44.3a1.519,1.519,0,0,0-1.515,1.52l0,6.061ZM6.675,50.589a3.372,3.372,0,1,0-3.368-3.378A3.373,3.373,0,0,0,6.675,50.589ZM36.667,24.108a4.942,4.942,0,0,1,4.919,4.53L42.209,38l6.209,3.756-.013,15.8H45.635l0,5.172a4.019,4.019,0,1,1-8.039,0l0-5.172H10.791l0,5.172a4.019,4.019,0,1,1-8.039,0l0-5.172H-.012l-.013-15.8L6.189,38l.623-9.367a4.943,4.943,0,0,1,4.914-4.53Z" transform="translate(0.025 -24.108)"/></g><g transform="translate(46.857)"><path class="a" d="M39.816,26.283a3.535,3.535,0,1,0-3.533,3.545A3.54,3.54,0,0,0,39.816,26.283Z" transform="translate(-26.438 1.772)"/><path class="a" d="M32.869,25.446V7.631H29.324V29.145H58.492v23.91H54.3V48.9a1.594,1.594,0,0,0-.469-1.132L45.03,39.028a2.579,2.579,0,0,0-3.645,0l-5.127,5.115-4.332-3.149a1.746,1.746,0,0,0-2.469-.222,1.777,1.777,0,0,0-.164,2.5L34.8,47.6a1.725,1.725,0,0,0,1.3.578,1.768,1.768,0,0,0,1.36-.641l2.849-2.849,7.125,7.141v1.226H34.859V77.016H63.806V25.446Z" transform="translate(-28.857 -7.631)"/></g></g></svg>