<svg xmlns="http://www.w3.org/2000/svg" width="22" height="21.877" viewBox="0 0 22 21.877"><defs><style>.a{fill:#1a181a;}</style></defs><g transform="translate(-151 -1638)"><g transform="translate(151 1638)"><path class="a" d="M70.109,15.01l1.293-.082h.007A3.044,3.044,0,0,0,73.677,13.6L74.7,12.1a6.05,6.05,0,0,0,.97-4.439A1.365,1.365,0,0,0,74.388,6.53a6.048,6.048,0,0,0-4.29,1.5L68.732,9.219a3.044,3.044,0,0,0-1.043,2.411s0,0,0,.007l.074,1.293a1.82,1.82,0,0,1-.506,1.364L56.586,25.257a1.551,1.551,0,0,0-.415,1.151,1.783,1.783,0,0,0,1.807,1.733q.071,0,.142-.006a1.551,1.551,0,0,0,1.094-.552l9.6-11.906A1.82,1.82,0,0,1,70.109,15.01Zm-1.806.252L58.7,27.167a.9.9,0,0,1-.635.311,1.126,1.126,0,0,1-1.237-1.1.9.9,0,0,1,.23-.666L67.731,14.753a2.482,2.482,0,0,0,.691-1.86l-.074-1.29a2.387,2.387,0,0,1,.818-1.887l1.366-1.194a5.4,5.4,0,0,1,3.825-1.333.706.706,0,0,1,.662.587,5.393,5.393,0,0,1-.865,3.957l-1.022,1.5a2.387,2.387,0,0,1-1.776,1.038l-1.289.082A2.483,2.483,0,0,0,68.3,15.262Zm0,0" transform="translate(-53.756 -6.264)"/><path class="a" d="M298.633,293.5l-7.155-6.517a.33.33,0,1,0-.444.488l7.153,6.516a.9.9,0,0,1,.272.653,1.127,1.127,0,0,1-1.169,1.169.9.9,0,0,1-.651-.27l-6.376-7a.33.33,0,1,0-.488.444l6.377,7a1.551,1.551,0,0,0,1.124.484h.035a1.785,1.785,0,0,0,1.806-1.841A1.552,1.552,0,0,0,298.633,293.5Zm0,0" transform="translate(-277.242 -274.594)"/><path class="a" d="M3.98,9.182a3.054,3.054,0,0,0,2,.807h.007l1.3,0a1.819,1.819,0,0,1,1.331.587l.571.626a.33.33,0,1,0,.488-.444L9.1,10.136a2.482,2.482,0,0,0-1.815-.8l-1.292,0a2.4,2.4,0,0,1-1.548-.619L.688,4.249A.114.114,0,0,1,.856,4.1L4.272,7.512a.867.867,0,0,0,1.225,0l.4-.4h0L6.612,6.4h0l.4-.4a.867.867,0,0,0,0-1.225L3.6,1.355a.114.114,0,0,1,.154-.168L8.213,4.94a2.4,2.4,0,0,1,.619,1.548l0,1.292a2.484,2.484,0,0,0,.8,1.816l.611.557a.33.33,0,1,0,.444-.488l-.61-.556A1.82,1.82,0,0,1,9.5,7.777l0-1.3s0,0,0-.007a3.054,3.054,0,0,0-.807-2,.33.33,0,0,0-.03-.029L4.175.682A.773.773,0,0,0,3.131,1.821L6.547,5.237a.207.207,0,0,1,0,.292L6.379,5.7,2.571,1.89a.33.33,0,1,0-.466.466L5.912,6.164l-.247.247L1.858,2.6a.33.33,0,1,0-.466.466L5.2,6.877l-.168.168a.207.207,0,0,1-.292,0L1.322,3.629A.773.773,0,0,0,.184,4.674L3.951,9.152A.307.307,0,0,0,3.98,9.182Zm0,0" transform="translate(-0.001 -0.499)"/></g></g></svg>