<svg xmlns="http://www.w3.org/2000/svg" width="16.522" height="8.557" viewBox="0 0 16.522 8.557"><defs><style>.a{fill:#fff;}</style></defs><g transform="translate(0 0)"><path class="a" d="M17.08,35.67H4.836a.3.3,0,1,1,0-.59h11.8a7.376,7.376,0,0,0-14.74,0H3.36a.3.3,0,1,1,0,.59H1.443a.443.443,0,0,0,0,.885H17.08a.443.443,0,1,0,0-.885ZM6.606,29.179a.3.3,0,1,1-.3.3A.3.3,0,0,1,6.606,29.179ZM3.167,34.248a.3.3,0,1,1-.581-.106,6.729,6.729,0,0,1,1.879-3.565,6.88,6.88,0,0,1,1.03-.849.3.3,0,1,1,.329.49,6.245,6.245,0,0,0-.941.776A6.137,6.137,0,0,0,3.167,34.248Z" transform="translate(-1 -27.999)"/></g></svg>