<svg xmlns="http://www.w3.org/2000/svg" width="25" height="25" viewBox="0 0 25 25"><defs><style>.a{fill:#1a181a;fill-rule:evenodd;}</style></defs><g transform="translate(-6 -6)"><g transform="translate(6 6)"><path class="a" d="M16.625,27.25A10.625,10.625,0,1,1,27.25,16.625,10.625,10.625,0,0,1,16.625,27.25Zm0-2.5A8.125,8.125,0,1,0,8.5,16.625,8.125,8.125,0,0,0,16.625,24.75Z" transform="translate(-6 -6)"/><path class="a" d="M27.434,25.666a1.25,1.25,0,0,1-1.768,1.768l-6.5-6.5a1.25,1.25,0,1,1,1.768-1.768Z" transform="translate(-2.8 -2.8)"/></g></g></svg>