<svg xmlns="http://www.w3.org/2000/svg" width="22" height="22.431" viewBox="0 0 22 22.431"><defs><style>.a{fill:#1a181a;}</style></defs><g transform="translate(-349 -1638)"><g transform="translate(349 1638)"><g transform="translate(0 0)"><path class="a" d="M22.285,965.362a.679.679,0,0,0-.606.54l-.246,2.226a9.065,9.065,0,0,0-2.4,1.392l-2.055-.909a.628.628,0,0,0-.767.256l-2.425,4.206a.627.627,0,0,0,.161.786l1.8,1.326a9.293,9.293,0,0,0-.133,1.392,9.193,9.193,0,0,0,.133,1.383l-1.8,1.326a.628.628,0,0,0-.161.8l2.425,4.206a.627.627,0,0,0,.767.246l2.046-.9a9.049,9.049,0,0,0,2.406,1.383l.246,2.235a.628.628,0,0,0,.606.54h4.85a.627.627,0,0,0,.606-.54l.246-2.235a9.049,9.049,0,0,0,2.406-1.383l2.046.9a.628.628,0,0,0,.767-.246l2.425-4.206a.628.628,0,0,0-.161-.8l-1.8-1.326a9.193,9.193,0,0,0,.133-1.383,9.293,9.293,0,0,0-.133-1.392l1.8-1.326a.627.627,0,0,0,.161-.786l-2.425-4.206a.628.628,0,0,0-.767-.256l-2.055.909a9.065,9.065,0,0,0-2.4-1.392l-.246-2.226a.628.628,0,0,0-.606-.54h-4.85Zm.549,1.212h3.751l.227,2.027a.62.62,0,0,0,.417.5,7.892,7.892,0,0,1,2.69,1.563.62.62,0,0,0,.644.095l1.866-.824,1.885,3.268-1.639,1.2a.62.62,0,0,0-.237.606,8.015,8.015,0,0,1,.152,1.563,7.918,7.918,0,0,1-.152,1.553.62.62,0,0,0,.237.606l1.639,1.213-1.876,3.259-1.876-.824a.621.621,0,0,0-.644.1,7.869,7.869,0,0,1-2.69,1.553.621.621,0,0,0-.417.511l-.227,2.027H22.834l-.227-2.027a.621.621,0,0,0-.417-.511,7.869,7.869,0,0,1-2.69-1.553.621.621,0,0,0-.644-.1l-1.876.824-1.876-3.259,1.639-1.213a.62.62,0,0,0,.237-.606,7.919,7.919,0,0,1-.152-1.553,8.015,8.015,0,0,1,.152-1.563.62.62,0,0,0-.237-.606l-1.639-1.2,1.885-3.268,1.866.824a.62.62,0,0,0,.644-.095,7.892,7.892,0,0,1,2.69-1.563.62.62,0,0,0,.417-.5Zm1.876,4.244a5.759,5.759,0,1,0,5.759,5.759A5.768,5.768,0,0,0,24.71,970.818Zm0,1.212a4.547,4.547,0,1,1-4.547,4.547A4.538,4.538,0,0,1,24.71,972.031Z" transform="translate(-13.71 -965.362)"/></g></g></g></svg>