<svg xmlns="http://www.w3.org/2000/svg" width="30" height="17.684" viewBox="0 0 30 17.684"><defs><style>.a{fill:#fff;}</style></defs><g transform="translate(-12 -28)"><path class="a" d="M40.026,36.171,26.605,28.118a.717.717,0,0,0-.789,0,.814.814,0,0,0-.395.671v6.671L13.184,28.118a.717.717,0,0,0-.789,0,.814.814,0,0,0-.395.671V44.895a.764.764,0,0,0,.395.671.717.717,0,0,0,.789,0l12.237-7.342v6.671a.764.764,0,0,0,.395.671.717.717,0,0,0,.789,0l13.421-8.053a.814.814,0,0,0,.395-.671A.764.764,0,0,0,40.026,36.171ZM13.579,43.513V30.171l11.092,6.671Zm13.421,0V30.171l11.092,6.671Z" transform="translate(0 0)"/><path class="a" d="M84.789,29.2a.792.792,0,0,0-.789.789V45.147a.789.789,0,0,0,1.579,0V29.989a.792.792,0,0,0-.789-.789Z" transform="translate(-43.579 -0.726)"/></g></svg>