<svg xmlns="http://www.w3.org/2000/svg" width="27.091" height="27.091" viewBox="0 0 27.091 27.091"><path d="M104.078,108.147c-.021-.018-.045-.036-.067-.052l-.052-.033-.02-.012-.018-.01a2.264,2.264,0,0,0-.62-.234l-.073-.023a3.518,3.518,0,0,1-1.608-1.2,4.2,4.2,0,0,1-.5-.816c.02-.01.043-.018.068-.029a.621.621,0,0,0,.066-.019,3.693,3.693,0,0,0,1.184-.61,1.14,1.14,0,0,0,.1-.083,1.5,1.5,0,0,0,.309-.407,1.252,1.252,0,0,0,.052-1.017.926.926,0,0,0-.038-.09,1.676,1.676,0,0,0-1.919-.835c0-.068,0-.136.005-.2l0-.106a10.19,10.19,0,0,0-.054-1.773.019.019,0,0,0,0-.007c0-.016,0-.03-.007-.045a4.789,4.789,0,0,0-1.99-2.976,5.007,5.007,0,0,0-2.406-.861c-.238-.024-.474-.034-.71-.034h-.1a5.082,5.082,0,0,0-4.865,3.153,5.626,5.626,0,0,0-.273,2.479l.021.365,0,.037-.1-.03-.058-.016a1.518,1.518,0,0,0-1.181.237c-.018.011-.035.023-.052.036a1.371,1.371,0,0,0-.638,1.126,1.3,1.3,0,0,0,.02.21,1.375,1.375,0,0,0,.468.786,2.174,2.174,0,0,0,.207.153.621.621,0,0,0,.063.047,4.325,4.325,0,0,0,1.006.468l.114.045c-.014.032-.031.07-.052.114a4.143,4.143,0,0,1-1.344,1.541,3.112,3.112,0,0,1-.932.426v0c-.038.009-.074.02-.093.025a1.414,1.414,0,0,0-.826.555,1.175,1.175,0,0,0,.075,1.452,1.415,1.415,0,0,0,.419.344l.014.008h0a4.679,4.679,0,0,0,1.223.446l.087.021.045.011.009,0,.011,0,.169.036c.028.127.058.258.1.385a1.08,1.08,0,0,0,.809.747,1.446,1.446,0,0,0,.654-.025,3.8,3.8,0,0,1,1.338-.067,3.742,3.742,0,0,1,.974.516c.135.087.27.174.409.259l.018.012a3.51,3.51,0,0,0,1.729.613c.114.006.229.009.343.009.294,0,.584-.017.813-.031.029,0,.064,0,.093,0a2.868,2.868,0,0,0,1.217-.408l.015-.009c.23-.132.451-.272.668-.41a7.508,7.508,0,0,1,.912-.527c.054-.009.16-.014.24-.018l.16-.01h0l.238,0a7.853,7.853,0,0,1,1.031.068,1.305,1.305,0,0,0,.292.005,1.134,1.134,0,0,0,.743-.416,1.1,1.1,0,0,0,.2-.4c.006-.018.012-.038.017-.058v0l.056-.194a.159.159,0,0,1,0-.017,5.824,5.824,0,0,0,1.027-.3l.1-.038c.031-.011.063-.024.094-.038h0a1.724,1.724,0,0,0,.8-.589c.014-.018.025-.038.038-.057a1.2,1.2,0,0,0,.164-.883A1.213,1.213,0,0,0,104.078,108.147Zm-3.057,1.292a1.724,1.724,0,0,0-.335.62,9.234,9.234,0,0,0-1.008-.024l-.061,0-.158.009a2.613,2.613,0,0,0-.761.123.99.99,0,0,0-.115.052,8.92,8.92,0,0,0-1.124.641c-.186.117-.373.238-.57.351a.773.773,0,0,0-.074.042,1.083,1.083,0,0,1-.466.164c-.248.016-.5.033-.755.033-.062,0-.124,0-.206,0a.241.241,0,0,0-.066,0,1.884,1.884,0,0,1-.856-.337l-.033-.021c-.132-.08-.26-.163-.388-.245a5.115,5.115,0,0,0-1.492-.742,4.51,4.51,0,0,0-1.694-.022c-.016-.059-.036-.121-.059-.191l-.045-.114c-.01-.03-.039-.1-.054-.13a.877.877,0,0,0-.44-.413,2.841,2.841,0,0,0-.567-.164c.109-.063.215-.129.319-.2a5.913,5.913,0,0,0,1.92-2.2,2.1,2.1,0,0,0,.257-1.412,1.389,1.389,0,0,0-.469-.744.932.932,0,0,0,.579-.648.956.956,0,0,0,.022-.123,7.1,7.1,0,0,0-.009-1.182l-.02-.345a4.163,4.163,0,0,1,.145-1.729A3.505,3.505,0,0,1,93.5,99.1a3.687,3.687,0,0,1,2.279-.68,5.3,5.3,0,0,1,.542.026,3.26,3.26,0,0,1,1.57.551,3.038,3.038,0,0,1,1.272,1.846,8.744,8.744,0,0,1,.037,1.475l0,.123c0,.136-.008.272-.013.4-.01.245-.019.484-.011.72,0,.013.01.151.011.164a.877.877,0,0,0,.566.752c.03.011.06.021.092.031a1.715,1.715,0,0,0-.295.309l0,.005a1.413,1.413,0,0,0-.173,1.27c.009.031.017.061.029.091a5.65,5.65,0,0,0,.837,1.466,5.5,5.5,0,0,0,1.589,1.4A1.293,1.293,0,0,0,101.021,109.44Z" transform="translate(-82.213 -91.392)"/><path d="M19.879,0H7.209A7.216,7.216,0,0,0,0,7.209V19.879a7.218,7.218,0,0,0,7.209,7.211H19.879a7.22,7.22,0,0,0,7.211-7.211V7.209A7.218,7.218,0,0,0,19.879,0Zm5.464,19.879a5.47,5.47,0,0,1-5.464,5.464H7.209a5.469,5.469,0,0,1-5.461-5.464V7.209A5.468,5.468,0,0,1,7.209,1.748H19.879a5.469,5.469,0,0,1,5.464,5.461Z"/></svg>