<svg xmlns="http://www.w3.org/2000/svg" width="27.091" height="27.091" viewBox="0 0 27.091 27.091"><path d="M19.936,0H7.155A7.078,7.078,0,0,0,0,7.155V19.936a7.078,7.078,0,0,0,7.155,7.155H19.936a7.078,7.078,0,0,0,7.155-7.155V7.155A7.079,7.079,0,0,0,19.936,0Zm5.407,19.936a5.349,5.349,0,0,1-5.407,5.407H7.155a5.35,5.35,0,0,1-5.407-5.407V7.155A5.35,5.35,0,0,1,7.155,1.748H19.936a5.349,5.349,0,0,1,5.407,5.407Z"/><path d="M103.091,115.643a.874.874,0,0,0-.956-.048,5.049,5.049,0,0,1-1.493.332l-.323.044a4.2,4.2,0,0,0-2.673-.963,4.136,4.136,0,0,0-4.146,3.856,8.508,8.508,0,0,1-5.132-2.948.874.874,0,0,0-1.474.205,11.693,11.693,0,0,0-.544,4.3c0,2.57,2.028,4.459,3.42,5.452a5.973,5.973,0,0,1-3.09.476.874.874,0,0,0-.565,1.608,10.278,10.278,0,0,0,5.492,1.584,10.022,10.022,0,0,0,10.2-9.773c.18-.261.523-.77,1.1-1.662a5.97,5.97,0,0,0,.523-1.563A.873.873,0,0,0,103.091,115.643Zm-2.865,3.326a.876.876,0,0,0-.166.512,8.318,8.318,0,0,1-8.452,8.307,8.615,8.615,0,0,1-1.562-.142,7.5,7.5,0,0,0,1.923-1.077.874.874,0,0,0-.139-1.472c-.038-.019-3.732-1.962-3.732-4.681a18.586,18.586,0,0,1,.114-2.173,10.29,10.29,0,0,0,6.2,2.474c.017,0,.036,0,.052,0a.874.874,0,0,0,.814-1.214,2.355,2.355,0,0,1,2.372-2.748,2.435,2.435,0,0,1,1.758.747.877.877,0,0,0,.8.255c.2-.038.427-.067.668-.1l.26-.035C100.474,118.624,100.237,118.954,100.226,118.969Z" transform="translate(-81.026 -108.726)"/></svg>