<svg xmlns="http://www.w3.org/2000/svg" width="30" height="30" viewBox="0 0 30 30"><defs><style>.a{fill:#54c333;}</style></defs><path class="a" d="M17.522,2.25A14.671,14.671,0,0,0,2.795,16.864,14.463,14.463,0,0,0,4.908,24.41L2.25,32.25,10.4,29.66a14.752,14.752,0,0,0,21.846-12.8A14.671,14.671,0,0,0,17.522,2.25Zm7.323,20.164a3.8,3.8,0,0,1-2.6,1.679c-.691.037-.71.535-4.476-1.1s-6.03-5.615-6.209-5.871a7.222,7.222,0,0,1-1.389-3.914A4.173,4.173,0,0,1,11.6,10.145a1.442,1.442,0,0,1,1.02-.429c.3,0,.489-.009.708,0s.549-.046.834.712.967,2.622,1.054,2.812a.682.682,0,0,1,.007.654,2.558,2.558,0,0,1-.4.608c-.2.211-.413.472-.589.633-.2.178-.4.373-.194.755a11.27,11.27,0,0,0,1.994,2.661,10.276,10.276,0,0,0,2.953,1.963c.369.2.59.179.819-.062s.98-1.054,1.245-1.418.513-.293.853-.156,2.153,1.109,2.523,1.309.616.3.7.462A3.093,3.093,0,0,1,24.845,22.414Z" transform="translate(-2.25 -2.25)"/></svg>